<?xml version="1.0" encoding="UTF-8"?>
<svg id="Layer_1" data-name="Layer 1" xmlns="http://www.w3.org/2000/svg" viewBox="0 0 200 200">
  <defs>
    <style>
      .cls-1 {
        fill: none;
      }
    </style>
  </defs>
  <path class="cls-1" d="M-37.95-41.63V237.79H235.36V-41.63H-37.95ZM199.44,182.29c-1.81,8.88-7.74,14.9-17.96,16.72l-161.07-.1c-10.89,0-19.39-8.6-19.39-19.39V16.83C2.75,8.81,9.05.97,17.36.97l165.75-.1c8.5,1.05,14.33,7.36,16.34,16.05v165.36Z"/>
  <path d="M183.11.88l-165.75.1C9.05.97,2.75,8.81,1.03,16.83v162.69c0,10.8,8.5,19.39,19.39,19.39l161.07.1c10.22-1.82,16.14-7.83,17.96-16.72V16.93c-2.01-8.69-7.83-15-16.34-16.05ZM93.5,144.46c-4.78.57-5.92-20.35-11.85-21.88-3.06-.86-11.56-1.62-14.71-1.43l-13.37.86c-5.64.38-4.68,14.71-11.85,21.78-2.01,2.1-10.13.19-13.47-1.15l30.09-85.5c5.54-.38,14.33-.29,19.2.19l30,85.5-14.04,1.62ZM176.52,114.56l-45.66.67c.48,5.25,2.58,12.42,5.35,14.9,13.18,12.13,28.75-9.17,39.36-3.06-4.87,18.82-24.74,20.83-39.45,17.2-16.14-4.01-22.35-21.69-20.73-38.59,1.82-19.68,17.39-31.81,35.25-29.71,18.25,2.2,29.42,18.53,25.89,38.59Z"/>
  <path class="cls-1" d="M77.55,57.34c-4.87-.48-13.66-.57-19.2-.19l-30.09,85.5c3.34,1.34,11.46,3.25,13.47,1.15,7.16-7.07,6.21-21.4,11.85-21.78l13.37-.86c3.15-.19,11.66.57,14.71,1.43,5.92,1.53,7.07,22.45,11.85,21.88l14.04-1.62-30-85.5ZM54.72,108.35l12.9-34.58,12.61,34.87-25.51-.29Z"/>
  <path class="cls-1" d="M150.63,75.97c-17.86-2.1-33.44,10.03-35.25,29.71-1.62,16.91,4.59,34.58,20.73,38.59,14.71,3.63,34.58,1.62,39.45-17.2-10.6-6.11-26.18,15.19-39.36,3.06-2.77-2.48-4.87-9.65-5.35-14.9l45.66-.67c3.53-20.06-7.64-36.4-25.89-38.59ZM130.66,102.81c1.24-7.55,8.12-14.52,14.14-14.81,7.74-.57,13.28,2.87,18.06,14.81-11.66,2.77-21.49,3.06-32.19,0Z"/>
  <polygon points="80.22 108.64 54.72 108.35 67.61 73.77 80.22 108.64"/>
  <path d="M162.86,102.81c-11.66,2.77-21.49,3.06-32.19,0,1.24-7.55,8.12-14.52,14.14-14.81,7.74-.57,13.28,2.87,18.06,14.81Z"/>
</svg>