<?xml version="1.0" encoding="UTF-8"?>
<svg id="Layer_1" data-name="Layer 1" xmlns="http://www.w3.org/2000/svg" viewBox="0 0 200 200">
  <defs>
    <style>
      .cls-1 {
        fill: none;
      }
    </style>
  </defs>
  <path class="cls-1" d="M-35.26-38.48V241.21H238.21V-38.48H-35.26ZM199.26,182.61c-1.85,8.84-7.75,14.84-18.01,16.7l-161.18-.11c-10.91,0-19.42-8.62-19.42-19.42V17.07C2.39,8.99,8.72,1.13,16.9,1.13l165.98-.11c8.51,1.09,14.3,7.42,16.37,16.04v165.54Z"/>
  <path d="M182.89,1.02l-165.98.11C8.72,1.13,2.39,8.99.64,17.07v162.71c0,10.8,8.51,19.42,19.42,19.42l161.18.11c10.26-1.85,16.15-7.86,18.01-16.7V17.07c-2.07-8.62-7.86-14.95-16.37-16.04ZM107.59,143.65c-11.24-6.88-7.2-21.06-13.31-22.04-4.15-.76-11.68-1.31-15.39-1.09l-13.53.87c-3.27.22-4.26,6.87-6.11,11.13l-4.58,10.04c-1.31,2.84-13.1-.22-13.75-3.06l29.03-81.52c1.75-4.91,15.28-5.02,19.42-1.64l29.46,82.39c-.65,2.62-9.06,6.22-11.24,4.91ZM149.38,143.22h-15.39v-67.66h15.39v67.66ZM141.96,64.97c-4.8,0-8.62-3.82-8.62-8.51s3.82-8.62,8.62-8.62,8.51,3.82,8.51,8.62-3.82,8.51-8.51,8.51Z"/>
  <path class="cls-1" d="M89.36,56.35c-4.15-3.38-17.68-3.27-19.42,1.64l-29.03,81.52c.65,2.84,12.44,5.89,13.75,3.06l4.58-10.04c1.86-4.26,2.84-10.91,6.11-11.13l13.53-.87c3.71-.22,11.24.33,15.39,1.09,6.11.98,2.07,15.17,13.31,22.04,2.18,1.31,10.58-2.29,11.24-4.91l-29.46-82.39ZM66.99,107.31l12.22-34.59,12.66,32.41c-5.78,3.49-15.71,3.93-24.88,2.18Z"/>
  <rect class="cls-1" x="134" y="75.56" width="15.39" height="67.66"/>
  <path class="cls-1" d="M150.48,56.46c0,4.69-3.82,8.51-8.51,8.51s-8.62-3.82-8.62-8.51,3.82-8.62,8.62-8.62,8.51,3.82,8.51,8.62Z"/>
  <path d="M91.88,105.13c-5.78,3.49-15.71,3.93-24.88,2.18l12.22-34.59,12.66,32.41Z"/>
</svg>