<svg width="16" height="16" viewBox="0 0 16 16" fill="none" xmlns="http://www.w3.org/2000/svg">
<path d="M0 0H16V16H0V0Z" fill="black"/>
<path d="M6.72566 11.7596L6.77174 11.6094C6.74455 11.6059 6.68099 11.6068 6.68854 11.6201C6.69835 11.6372 6.70036 11.6643 6.69069 11.6984L6.64188 11.6462C6.63185 11.6355 6.61584 11.6941 6.61088 11.7022C6.50867 11.5352 6.45661 11.3635 6.43347 11.1598L6.38519 10.7365L6.35847 10.5132L6.36455 10.2772C6.36515 10.2573 6.32178 10.2182 6.33036 10.2003L6.37286 10.1128C6.33113 9.99741 6.29929 9.79889 6.29548 9.66344L6.28952 9.44965L6.07927 9.64977C6.0309 9.69576 5.96852 9.76116 5.92234 9.81473L5.48808 10.3173C5.46307 10.3292 5.40987 10.3645 5.38844 10.3772C5.37075 10.4514 5.27407 10.5047 5.23895 10.5523C5.15361 10.6685 5.0647 10.7936 4.93008 10.8524L4.88048 10.987C4.90249 11.1014 4.91987 11.2289 4.92826 11.3507L4.9559 11.7473C4.96239 11.8388 4.95588 11.9339 4.95028 12.02C4.96322 12.0298 4.96319 12.0467 4.95634 12.0831L5.01907 12.175C5.03445 12.1977 5.01337 12.2691 4.98611 12.2757L4.90543 12.2955C4.8912 12.299 4.91059 12.3411 4.92326 12.3485C4.93176 12.3533 4.96479 12.3676 4.9701 12.3756L5.07757 12.5453C5.09008 12.5393 5.05371 12.5911 5.03744 12.5844L4.96013 12.5527C4.93216 12.5411 4.86251 12.5069 4.85286 12.5332L4.81558 12.6353C4.87728 12.5984 4.92395 12.5534 4.94697 12.5667L5.03889 12.6193C5.05063 12.6262 5.11595 12.6143 5.10974 12.6265C5.10305 12.6399 5.08861 12.6736 5.07695 12.6805L5.043 12.7005L4.89959 12.7109L4.94254 12.7741C4.95065 12.7859 4.93577 12.8227 4.93972 12.8367C4.9424 12.8466 4.99028 12.8584 4.99077 12.8481L4.99367 12.7914C4.99481 12.7681 4.99934 12.7366 5.01372 12.7289C5.0281 12.7213 5.08529 12.7257 5.08196 12.7414L5.06564 12.8194C5.0928 12.816 5.15602 12.8151 5.1535 12.8423L5.14148 12.9694C5.11767 12.9494 5.10105 12.8916 5.08605 12.903L5.01981 12.9541C5.00494 12.9657 5.06989 13.0119 5.08309 13.0284C5.12513 13.0818 5.15806 13.1692 5.19218 13.2309C5.21584 13.274 5.40508 13.5915 5.3189 13.6292L5.25973 13.6549C5.27201 13.7043 5.28157 13.786 5.24899 13.8098C5.08788 13.9274 5.06315 13.739 4.99871 13.8683C5.03718 13.8783 5.08052 13.8805 5.07724 13.8953L5.06333 13.9556C5.05967 13.9712 4.96378 14.0026 4.83996 13.8677L4.73824 13.7568C4.69174 13.7061 4.66774 13.6707 4.63624 13.6022C4.60474 13.5338 4.5095 13.4382 4.48159 13.3642C4.44841 13.2764 4.44553 13.2414 4.34899 13.2033L4.22834 12.9793C4.16517 12.9255 4.12873 12.8811 4.08115 12.8276C3.96508 12.6962 3.83482 12.5815 3.7359 12.4331C3.71344 12.3994 3.66797 12.3475 3.63706 12.3494C3.56482 12.3539 3.5356 12.5051 3.39213 12.6129C3.28057 12.6967 3.22964 12.7931 3.14004 12.8958L3.03745 13.0132C2.93904 13.1257 2.84792 13.2461 2.7385 13.3558C2.66623 13.4282 2.61697 13.4979 2.55524 13.5804L2.42704 13.7519C2.37815 13.8174 2.28402 13.8915 2.24305 13.9534L2.13413 14.1178C2.09035 14.1837 2.04881 14.2486 1.99765 14.3131L1.81379 14.5449C1.72689 14.6546 1.66919 14.8045 1.54485 14.873C1.54179 14.9051 1.5573 14.9945 1.52993 15.0043L1.40453 15.0496C1.32514 15.0784 1.18324 15.1326 1.12392 15.0897C1.07786 14.9946 0.999135 14.9474 0.91635 14.9243L0.940506 14.6893C0.948715 14.6106 1.06022 14.3328 1.09229 14.2746C1.16652 14.1401 1.18616 14.0338 1.24727 13.9027L1.40347 13.5673C1.56217 13.2263 1.43715 13.3659 1.55418 13.0959L1.66893 12.8313C1.79928 12.5306 1.88786 12.2215 2.02509 11.9276C2.11203 11.7409 2.20542 11.5851 2.241 11.4078C2.27075 11.2594 2.35967 11.1028 2.422 10.9607C2.08893 10.7299 2.11642 10.6805 1.78976 10.3801C1.71919 10.3152 1.68578 10.2717 1.70473 10.1569L1.58677 10.1425C1.61676 10.0959 1.65514 10.0538 1.65226 10.0252C1.64938 9.99655 1.60961 9.95529 1.58374 9.92645L1.54596 10.1228C1.56056 10.1325 1.46118 10.0663 1.45596 10.0628C1.50167 10.0292 1.54073 9.99705 1.52338 9.98266C1.50956 9.97134 1.46698 9.95149 1.44102 9.94189C1.40292 9.92771 1.40462 9.84283 1.41576 9.79188L1.31124 9.78967L1.33809 9.71543C1.34068 9.70818 1.30981 9.72323 1.30306 9.72779L1.26454 9.75508C1.24963 9.76616 1.25305 9.6711 1.27418 9.66523L1.36415 9.64081C1.37154 9.62328 1.30173 9.55193 1.27553 9.56423C1.25467 9.57395 1.20966 9.61108 1.21465 9.63362L1.23404 9.72324C1.18707 9.72117 1.11895 9.72154 1.1128 9.6951L1.0926 9.60653C1.18025 9.61067 1.2675 9.56467 1.27478 9.49797C1.22284 9.48164 1.16508 9.46903 1.20736 9.41805L1.39992 9.58994C1.40228 9.63808 1.39486 9.67108 1.4147 9.68L1.50181 9.71911C1.51263 9.72389 1.54525 9.75447 1.55356 9.76274C1.52507 9.73431 1.68949 9.67372 1.68655 9.57125C1.6847 9.50992 1.64736 9.47326 1.5795 9.41879L1.72222 9.39219L1.74353 9.71057C1.7911 9.74178 1.83091 9.74723 1.78871 9.69166C1.77794 9.64333 1.76549 9.59942 1.78361 9.59475L1.85889 9.57499C1.83593 9.61801 1.82199 9.84267 1.86967 9.78678L1.91092 9.73841L2.13984 9.85996C2.16026 9.87082 2.22462 9.87038 2.2322 9.89196C2.23837 9.90922 2.23382 9.96601 2.24786 9.9772L2.42222 10.1177C2.37659 10.0811 2.63396 10.3556 2.69754 10.2869C2.7839 10.1934 2.77974 9.93558 2.97148 9.64102C3.04988 9.52036 3.03311 9.38281 3.15998 9.18576C3.22655 9.08238 3.25157 9.00407 3.29369 8.89364L3.39415 8.63L3.51069 8.31651L3.67211 8.00204L3.80202 7.69184L3.90875 7.44998C4.03325 7.16844 4.08215 7.22664 4.12386 7.00737C4.14124 6.91611 4.22333 6.82934 4.27315 6.75187C4.32315 6.58498 4.43842 6.37215 4.64694 6.3912C4.70496 6.3965 4.81465 6.42201 4.86042 6.43224C4.85172 6.65123 5.00965 6.50687 4.9765 6.74113L4.94438 6.96648L4.88781 7.35597C4.88559 7.3716 4.91216 7.62762 4.85227 7.69528L4.85822 8.15785C4.85898 8.22411 4.84077 8.2878 4.80888 8.34039C4.86441 8.5112 4.81212 8.70378 4.81929 8.88908L4.83378 9.27447C4.84152 9.48205 4.81783 9.66835 4.83387 9.87304L4.84444 10.0088C4.90183 9.94176 4.96148 9.89113 5.02949 9.82899C5.07777 9.78478 5.09803 9.6984 5.18752 9.67655C5.24821 9.41918 5.10481 9.41699 5.12335 9.38344L5.17673 9.28727C5.10319 9.18147 5.08951 9.03895 5.14712 8.90535L5.11072 8.80142C5.17799 8.75403 5.13423 8.39076 5.12498 8.30088C5.10061 8.06217 5.194 7.94899 5.14257 7.70076C5.13791 7.67831 5.19102 7.61951 5.18103 7.59821L5.13926 7.50746C5.16642 7.36004 5.18157 7.23201 5.18797 7.06391L5.33407 7.10803L5.18416 6.97598C5.20379 6.96612 5.26342 6.94213 5.28205 6.96063L5.38069 7.05907C5.38278 7.06843 5.40841 7.02412 5.39912 7.01128L5.34879 6.94046C5.39422 6.92828 5.44901 6.9601 5.51721 7.00692L5.46635 6.89205C5.44822 6.89185 5.52964 6.86991 5.55573 6.86712C5.57996 6.86457 5.57298 6.91965 5.58139 6.97223L5.70538 6.92403L5.63802 7.03675L5.77728 7.03337L5.75119 7.23742C5.85271 7.38197 5.80094 7.5376 5.79604 7.67963C5.78843 7.90484 5.81317 8.12186 5.78609 8.34023C5.77644 8.41892 5.77601 8.4856 5.77665 8.57397C5.77762 8.72256 5.75384 8.87572 5.80938 9.01503C5.8407 8.93042 5.88202 8.87829 5.94717 8.82099L6.16804 8.62578C6.21184 8.58707 6.25818 8.51194 6.29114 8.47618L6.4709 8.28059L6.86758 7.8506L6.83568 7.38186C6.82959 7.29297 6.79665 7.18328 6.78778 7.08774L6.76491 6.84671C6.75241 6.71495 6.71361 6.56719 6.72786 6.43569C6.74125 6.31242 6.74134 6.19957 6.68111 6.07705C6.69965 6.01831 6.74878 5.93237 6.78705 5.88089L6.83175 5.92325C6.83838 5.92965 6.84264 5.89421 6.84339 5.88432L6.84621 5.85031C6.89584 5.81131 6.82066 5.76574 6.77354 5.7062L7.02046 5.77534L6.96043 5.68419C6.9994 5.6824 7.04773 5.68969 7.04361 5.67494C7.03875 5.65748 7.0346 5.63588 7.02518 5.62912L6.96657 5.58695L7.04986 5.59825C7.06502 5.60019 7.05941 5.66391 7.06539 5.67842L7.13136 5.84365L7.19291 5.78703C7.26577 5.72002 7.37863 6.17767 7.37805 6.3057L7.37696 6.52449L7.42152 6.84206C7.46068 7.12186 7.40071 7.17582 7.50769 7.2433C7.54015 7.10535 7.66482 7.09711 7.72513 7.02577C7.79847 6.93873 7.87491 6.86131 7.95672 6.77843L8.09692 6.6365L8.32117 6.3995C8.37682 6.34064 8.43823 6.27409 8.51374 6.21497C8.77567 6.00986 8.68842 6.04956 8.63068 5.56657L8.67211 5.33229C8.5525 5.28315 8.58553 5.20241 8.56642 5.12006C8.5499 5.04936 8.54063 4.98611 8.5487 4.91493L8.5785 4.65802L8.52451 4.49662C8.50792 4.44714 8.49651 4.39918 8.51392 4.36372C8.55063 4.28826 8.58758 4.29224 8.67667 4.30126L8.59876 4.19919L8.67983 4.06608L8.79427 4.15348C8.76658 4.06045 8.74413 3.97921 8.78136 3.9667L8.96778 4.02198L8.98384 4.16367L9.0797 4.11288L9.04345 4.17748C8.97026 4.30795 9.14367 4.10837 9.15042 4.10868C9.17893 4.11048 9.25135 4.11788 9.2551 4.11939C9.25453 4.16353 9.25126 4.18464 9.25846 4.19299C9.26567 4.20134 9.28327 4.22245 9.2909 4.23055C9.34796 4.46602 9.31942 4.22461 9.56192 4.58837L9.7631 4.8903C9.78271 4.91968 9.84923 4.97236 9.8807 4.96125C9.9908 4.92296 9.87146 4.91259 10.1069 4.70819C10.1498 4.67088 10.2016 4.60112 10.2488 4.56814C10.4582 4.4218 10.1762 4.45377 10.2656 4.26449L10.1105 4.10229C10.0758 4.06611 10.1073 3.94071 10.1105 3.90678C10.0398 3.8892 9.95174 3.86983 9.93945 3.82669C9.92469 3.77498 9.916 3.69623 9.92803 3.6628L10.0275 3.84805C10.0454 3.84008 10.078 3.82745 10.0754 3.8158C10.0267 3.59258 10.1216 3.77428 10.0441 3.55602L9.97148 3.67926L9.9159 3.5205C10.0547 3.53771 10.0789 3.55694 10.1998 3.61594L10.0674 3.47152C10.1355 3.40507 10.239 3.52583 10.2673 3.48222L10.3123 3.41303L10.3232 3.56381C10.3846 3.5502 10.4728 3.55486 10.5508 3.58674L10.3651 3.69312C10.3903 3.7 10.4557 3.69606 10.4972 3.68338C10.5251 3.67461 10.5353 3.6371 10.564 3.58241L10.6415 3.7978L10.8357 4.0034L11.1702 3.72744C11.2472 3.66402 11.33 3.65324 11.3536 3.50363L11.0998 3.50328C11.0071 3.50323 10.8696 3.50472 10.7805 3.48255L10.5167 3.41734C10.4316 3.39622 10.3399 3.38472 10.2466 3.38019L10.3432 3.32382L10.169 3.33093C10.1264 3.39011 10.0924 3.41355 10.0486 3.42452L10.1135 3.27715L10.2042 3.30099C10.2181 3.30457 10.2333 3.2518 10.2234 3.24132L10.1837 3.19972C10.1692 3.18967 10.1206 3.17853 10.1216 3.16133L10.1253 3.09531C10.1057 3.11202 10.0674 3.14748 10.0726 3.16845L10.0928 3.24874L9.99016 3.23424C10.0135 3.20014 10.0497 3.15245 10.0394 3.13304L9.99439 3.04938C10.0358 3.03669 10.1078 3.02346 10.0932 3.00546L10.0297 2.92637C10.0212 2.9159 10.0213 2.89125 10.0319 2.88411C10.0444 2.87563 10.0842 2.85786 10.0918 2.86883L10.1324 2.92506C10.1444 2.88622 10.1667 2.80721 10.2035 2.80811L10.3652 2.81159C10.412 2.81257 10.4782 2.80162 10.5336 2.81649C10.56 2.82351 10.6231 2.7889 10.6506 2.789C10.7277 2.78934 10.8761 2.85762 10.9516 2.85376L11.2023 2.84106C11.3006 2.83608 11.3949 2.86265 11.4932 2.87623C11.6842 2.90279 11.7913 2.86769 11.9641 2.91549C12.1328 2.93054 12.2336 2.71882 12.3619 2.64204C12.7514 2.40838 12.4521 2.46663 12.741 2.36124C12.8268 2.2099 12.9652 2.07363 13.1444 2.02352L13.3972 1.72498C13.435 1.68039 13.5167 1.64626 13.5528 1.61836L13.7441 1.47038L13.9011 1.3157L14.2061 1.10033C14.2407 1.07597 14.2853 1.05135 14.3273 1.03034C14.3713 0.989184 14.4395 0.906029 14.4905 0.865394L14.676 0.717371L14.8715 0.808491C14.8524 0.866174 14.8577 0.932008 14.8876 0.967643L14.9311 0.783401L14.7255 0.695073L14.9339 0.548679L14.8872 0.712809L14.9818 0.62408L15.0566 0.659281L15.1392 0.53557L15.0046 0.554545L15.009 0.409682C15.048 0.462263 15.0501 0.517712 15.0755 0.516738L15.183 0.512337L15.1819 0.567125C15.1817 0.578412 15.2006 0.595015 15.2128 0.594947L15.2716 0.594669C15.2833 0.594639 15.2805 0.648989 15.2697 0.647294C15.2373 0.642672 15.1948 0.625367 15.1902 0.641481L15.1771 0.689911C15.1425 0.662778 15.107 0.645319 15.0693 0.660399C15.127 0.732034 15.1863 0.768631 15.2815 0.797236C15.2482 0.738402 15.2474 0.745753 15.2316 0.732473C15.2217 0.723978 15.2302 0.672887 15.2426 0.677006C15.2551 0.681125 15.3084 0.7052 15.3134 0.71746C15.3224 0.740493 15.2951 0.826142 15.271 0.831229L15.1692 0.851701L15.1678 0.920651C15.1676 0.934263 15.2255 0.920997 15.2397 0.919803L15.3099 0.912771C15.3234 0.911402 15.3085 0.96282 15.295 0.962752L15.2449 0.962551C15.2208 0.962437 15.1564 0.984654 15.1522 1.00804C15.149 1.02683 15.159 1.05554 15.1686 1.08538C15.1749 1.10484 15.1674 1.15565 15.1473 1.15781C15.1319 1.15941 15.0876 1.15803 15.0738 1.15158L14.9417 1.09036C14.9064 1.45784 14.7231 1.4606 14.6785 1.49858L14.3664 1.7645C14.3406 1.78661 14.2669 1.79742 14.2533 1.82631C14.2179 1.90158 14.1301 1.93701 14.0863 1.97859C14.0616 2.00206 14.0314 2.0857 14.006 2.1164C13.987 2.13937 13.9329 2.13115 13.8942 2.12453C13.876 2.16843 13.8319 2.2391 13.7799 2.28235L13.5845 2.44509L13.3423 2.66575C13.2624 2.73866 13.1816 2.81207 13.0937 2.87503L12.9409 2.98433C12.8746 3.0626 12.7663 3.1872 12.681 3.2555L12.5494 3.36114C12.4143 3.46945 12.2995 3.6104 12.1661 3.73086C11.931 3.94274 11.8331 3.97986 11.6823 4.13722L11.4724 4.35632C11.4564 4.37289 11.4126 4.43105 11.4341 4.43444L11.5185 4.4471C11.5737 4.45546 11.6271 4.48241 11.6769 4.50883L11.8565 4.6048C11.9128 4.63486 12.0181 4.66355 12.0449 4.71387C12.0815 4.78276 12.1113 4.81442 12.1673 4.85356L12.0804 4.88849L12.2187 4.96464C12.1042 4.9746 11.9585 5.0285 11.9802 5.13708C11.9838 5.15529 12.0033 5.20535 12.0088 5.22243C12.0143 5.23952 11.9597 5.24879 11.9415 5.25148L11.8794 5.26061C11.8665 5.26249 11.8464 5.22828 11.8337 5.23148C11.818 5.23553 11.7783 5.26358 11.7679 5.2528L11.7327 5.21597C11.6718 5.23044 11.6071 5.22018 11.5447 5.16424C11.5414 5.15905 11.5065 5.20709 11.5186 5.22516L11.5661 5.2965L11.7225 5.56382L11.8155 5.74234L11.9484 5.95226L12.1617 6.30774C12.176 6.33196 12.1615 6.4175 12.1833 6.42872C12.2077 6.44152 12.2672 6.45998 12.2684 6.4799L12.2726 6.56074C12.3131 6.59409 12.374 6.64262 12.3869 6.6834C12.3983 6.71965 12.3796 6.81167 12.3729 6.83711L12.2952 6.81825C12.3172 6.87885 12.3899 6.87518 12.4591 6.85672L12.4344 6.92738C12.4305 6.93859 12.4576 6.97983 12.4569 6.98629L12.3687 7.02827C12.4154 7.05711 12.4815 7.04649 12.5505 7.02186C12.5512 7.01971 12.536 7.05933 12.5431 7.07L12.5776 7.12322L12.3981 7.12572C12.4563 7.2297 12.5074 7.16894 12.6241 7.14766L12.4575 7.38501C12.4573 7.39541 12.4928 7.42889 12.5046 7.41538L12.55 7.36252C12.5641 7.34619 12.607 7.29339 12.6268 7.30209L12.6787 7.32472L12.6177 7.34836C12.6101 7.35143 12.6095 7.37556 12.6176 7.37821L12.6731 7.39672C12.6892 7.40214 12.6421 7.42759 12.6247 7.42956L12.5547 7.4379C12.5417 7.43957 12.5723 7.47847 12.5855 7.47989L12.6726 7.48893C12.6531 7.54023 12.5978 7.64582 12.5802 7.66935C12.5297 7.59092 12.5215 7.56286 12.588 7.62472C12.6017 7.59803 12.6191 7.56367 12.6091 7.5501L12.5575 7.48038L12.4935 7.56932L12.3658 7.27902L12.3386 7.41329C12.2988 7.40353 12.2114 7.45165 12.1484 7.50052C12.1563 7.51246 12.1298 7.47284 12.119 7.45634C12.1112 7.44461 12.1364 7.43636 12.1514 7.43522L12.2404 7.4291C12.2553 7.41835 12.1956 7.34962 12.1687 7.35633L12.0633 7.38325C12.0785 7.12977 11.9368 7.30783 11.977 7.07828L11.9089 7.12186C11.8942 7.13138 11.8554 7.08011 11.8464 7.06139L11.7045 6.76311C11.6867 6.72555 11.6188 6.66765 11.5987 6.63168L11.5051 6.46326L11.3917 6.26559C11.3474 6.1884 11.1513 5.86224 11.1155 5.80524L10.9591 5.55648L10.8232 5.31736C10.7841 5.24854 10.7174 5.16161 10.6662 5.08644L10.4657 5.26389C10.3981 5.3238 10.3564 5.39364 10.2737 5.43867C10.1099 5.52839 10.4037 5.88276 10.394 5.86619L10.5172 6.07523L10.6218 6.25405C10.8028 6.5639 10.8674 6.58189 11.0521 7.00378C11.0909 7.09229 11.1285 7.15082 11.1905 7.20791L11.258 7.33645C11.2646 7.34914 11.2966 7.37292 11.3061 7.38454C11.3123 7.39229 11.298 7.4062 11.2879 7.409L11.2183 7.4277L11.2761 7.4812C11.2911 7.49498 11.3339 7.47922 11.3731 7.47409L11.2801 7.66837L11.376 7.56916C11.4099 7.61591 11.3994 7.68791 11.3625 7.75179C11.3708 7.8004 11.3993 7.82486 11.3993 7.75954C11.4294 7.70917 11.4496 7.69154 11.4366 7.75046L11.4738 7.85964C11.4637 7.89249 11.4493 7.91216 11.4588 7.92776L11.5119 8.01584C11.5355 8.19172 11.2722 7.57829 11.3411 7.82764L11.3565 7.88383L11.4072 8.06724L11.48 8.05981C11.4935 8.05844 11.469 8.11151 11.4573 8.15078C11.4597 8.15194 11.3931 8.12192 11.367 8.11012C11.3448 8.10004 11.3499 8.03459 11.3407 8.01312C11.299 8.01134 11.2441 8.01943 11.2462 7.99839C11.2481 7.97925 11.2523 7.93642 11.2522 7.93675C11.3101 7.96759 11.3339 7.98021 11.2956 7.95986L11.2832 7.78708L11.2624 7.87494C11.2594 7.88785 11.2341 7.89821 11.2275 7.88717L11.187 7.81834C11.1892 7.7721 11.1825 7.78405 11.1677 7.83657L11.0509 7.8951C11.0939 7.89469 11.1676 7.88642 11.1919 7.90674C11.2275 7.93646 11.1369 8.04371 11.0991 8.02475C11.0706 8.01035 11.036 7.9852 10.9972 7.95571L10.8314 7.91549C10.9105 7.82705 10.9644 7.89519 11.0388 7.84731L10.8702 7.81645C10.8352 7.8099 10.8149 7.74056 10.7925 7.71082L10.5177 7.3452C10.4676 7.27857 10.4422 7.19676 10.4043 7.12089C10.3438 7.00027 10.2418 6.88548 10.1727 6.77075L9.68385 5.96051C9.43821 6.42312 9.36103 6.01772 9.43681 6.64381C9.49387 6.74787 9.50105 6.8968 9.46923 7.00432C9.50057 7.05311 9.54537 7.14122 9.54779 7.19819L9.55817 7.44372C9.57058 7.73586 9.64246 7.78939 9.66358 8.09872C9.63691 8.12962 9.62188 8.13905 9.63124 8.14814L9.68064 8.19602L9.5921 8.37562L9.72482 8.4179L9.70498 8.59908L9.58613 8.3946C9.52551 8.39169 9.52164 8.39627 9.59367 8.46316C9.60936 8.44904 9.58338 8.47238 9.55191 8.50095C9.53033 8.52255 9.50964 8.56796 9.48778 8.56338C9.46592 8.55881 9.40707 8.54627 9.42074 8.54909C9.45507 8.46959 9.46613 8.41124 9.44184 8.37489C9.43301 8.42247 9.43656 8.4576 9.42068 8.46753L9.34453 8.51586C9.329 8.52588 9.38673 8.57773 9.39083 8.59535C9.39493 8.61298 9.35908 8.63268 9.33642 8.64662C9.26236 8.69171 9.30002 8.58877 9.23145 8.58254L9.1502 8.57519L9.28599 8.51259L9.08872 8.51553C9.1208 8.42447 9.15054 8.38518 9.21608 8.35426L9.04465 8.26525C9.00925 8.2469 9.04453 8.14622 9.055 8.10627C8.97745 7.98881 8.92726 7.74413 8.9441 7.61654L8.90122 7.52101C8.89286 7.50247 8.91891 7.47537 8.92799 7.45198C8.87558 7.37036 8.87061 7.29743 8.89606 7.21257L8.84056 7.01999L8.82526 6.84807C8.68425 6.97845 8.5704 7.09281 8.42624 7.20959C8.37804 7.2486 8.3465 7.26348 8.31717 7.32915C8.3039 7.35902 7.98563 7.69554 7.91914 7.74619C8.03148 7.80822 8.15883 7.91607 8.2544 8.02577L8.56942 8.38742C8.74696 8.59107 8.63313 8.61381 8.70586 8.62417L8.8027 8.63808C9.00944 8.87233 9.02159 9.05783 9.2622 9.19968L9.1491 9.23287C9.08503 9.25175 9.23247 9.43536 9.10199 9.40465L8.98454 9.37713L9.10489 9.54923C9.11555 9.56441 9.14264 9.59339 9.15055 9.58157C9.15623 9.57278 9.17957 9.54642 9.17821 9.54751C9.17694 9.54826 9.15192 9.52522 9.14165 9.5141C9.12731 9.49851 9.12793 9.44089 9.14663 9.43187C9.1775 9.41681 9.22037 9.40127 9.22503 9.38105L9.25002 9.27213C9.31423 9.34708 9.27076 9.4397 9.21975 9.50012L9.18941 9.59416C9.18259 9.61507 9.11176 9.63994 9.10066 9.62015L9.02881 9.49246C9.0297 9.48621 9.02145 9.55806 9.01676 9.59375C9.01408 9.61394 9.03407 9.62505 9.06466 9.65511L8.88121 9.66937L8.9533 9.55644L8.82891 9.53216C8.81279 9.52907 8.76907 9.56744 8.76224 9.55343L8.73011 9.48535C8.70317 9.48863 8.64781 9.51211 8.63442 9.49424L8.57089 9.40831C8.36841 9.13376 8.62111 9.34606 8.25105 8.98709L8.03061 8.77324C7.9638 8.70842 7.90602 8.6148 7.8414 8.55757L7.71605 8.44682C7.69581 8.42898 7.64738 8.38854 7.62691 8.40232C7.60645 8.41611 7.5909 8.48139 7.59635 8.50566L7.67088 8.83818L7.72066 9.14665L7.78833 9.45831L7.80909 9.69915C7.80468 9.6485 7.94016 10.2042 7.93107 10.2402C7.90208 10.3535 7.94315 10.4672 8.03617 10.512L7.90143 10.7893C7.89525 10.8021 7.87544 10.8301 7.86755 10.8405C7.85966 10.8508 7.83253 10.815 7.83562 10.8023L7.849 10.7455L7.70771 10.7847L7.79517 10.8399C7.81204 10.8506 7.77013 10.9022 7.75457 10.9165L7.69215 10.8039C7.58965 10.8623 7.48032 10.834 7.43053 10.7297L7.33647 10.5338C7.42756 10.3575 7.27925 10.445 7.2688 10.097C7.26643 10.0202 7.21615 9.91363 7.18993 9.82745C7.0545 9.38196 7.1481 9.3826 7.09762 9.20194L7.04014 8.99535C7.01081 8.88983 7.05969 8.74964 6.93749 8.70775L6.91613 8.82283C6.912 8.84445 6.8662 8.83853 6.84126 8.83892L6.89281 8.88754C6.89931 8.89373 6.93388 9.25497 6.93568 9.31718L6.94042 9.48816L6.97914 9.871C6.9943 10.0204 7.0148 10.1861 7.00718 10.3303C6.99629 10.5354 7.0467 10.9511 7.09219 11.149C7.11183 11.2342 7.076 11.3636 7.12402 11.4566C7.14086 11.4891 7.11941 11.587 7.08381 11.5897L6.9464 11.6006L6.85864 11.7548L6.94299 11.8717C6.85897 11.8563 6.85565 11.7818 6.83719 11.734C6.80815 11.7531 6.74122 11.7831 6.72774 11.7593L6.72566 11.7596ZM10.1663 3.02132C10.1767 3.03409 10.2027 3.0617 10.2051 3.04739L10.2138 2.99761C10.2154 2.98832 10.1605 3.01442 10.1663 3.02132ZM8.89853 4.06796C8.9118 4.08562 8.93645 4.11288 8.93842 4.09827L8.94599 4.0437C8.9472 4.03411 8.89355 4.06145 8.89853 4.06796ZM8.85066 4.20984C8.89871 4.22102 8.93219 4.23077 8.92923 4.21848L8.91659 4.16696C8.91363 4.15468 8.89244 4.17547 8.85066 4.20984ZM8.64411 4.3823C8.63897 4.37359 8.62771 4.3705 8.6188 4.37575C8.60989 4.381 8.60715 4.39235 8.61228 4.40106C8.61742 4.40977 8.62868 4.41287 8.63759 4.40761C8.6465 4.40236 8.64924 4.39101 8.64411 4.3823ZM14.6145 0.949709C14.6076 0.849614 14.6008 0.851629 14.5831 0.879812L14.5428 0.943918C14.5038 0.97666 14.5076 0.977833 14.5668 0.944368C14.6385 0.974809 14.6597 0.979763 14.6145 0.949709ZM14.5221 1.03973L14.5925 1.07578C14.604 1.08162 14.573 1.03346 14.565 1.02329C14.5598 1.01636 14.514 1.03564 14.5221 1.03973ZM14.7498 1.03602C14.7756 0.974121 14.7992 0.907848 14.7965 0.866475L14.6891 1.03886C14.6667 1.09787 14.6948 1.08102 14.7498 1.03602ZM15.0536 0.738069C15.0485 0.729359 15.0372 0.726264 15.0283 0.731518C15.0194 0.736772 15.0167 0.748123 15.0218 0.756833C15.0269 0.765543 15.0382 0.768638 15.0471 0.763384C15.056 0.75813 15.0588 0.746778 15.0536 0.738069ZM8.62308 4.54643C8.61794 4.53772 8.60668 4.53463 8.59777 4.53988C8.58886 4.54513 8.58612 4.55649 8.59125 4.5652C8.59639 4.57391 8.60765 4.577 8.61656 4.57175C8.62547 4.56649 8.62821 4.55514 8.62308 4.54643ZM10.2424 3.69304C10.2372 3.68433 10.226 3.68123 10.2171 3.68649C10.2081 3.69174 10.2054 3.70309 10.2105 3.7118C10.2157 3.72051 10.2269 3.72361 10.2358 3.71835C10.2448 3.7131 10.2475 3.70175 10.2424 3.69304ZM14.8575 1.00574C14.8523 0.997034 14.8411 0.993939 14.8322 0.999193C14.8232 1.00445 14.8205 1.0158 14.8256 1.02451C14.8308 1.03322 14.842 1.03631 14.8509 1.03106C14.8599 1.0258 14.8626 1.01445 14.8575 1.00574ZM14.8295 1.19743C14.8427 1.18536 14.8894 1.1438 14.8738 1.13183L14.7827 1.06183L14.8295 1.19743ZM15.057 0.91069C15.0539 0.924829 15.0516 0.986878 15.0637 0.980635L15.116 0.953498C15.1283 0.94713 15.1127 0.911064 15.1003 0.904957C15.0919 0.900999 15.059 0.901827 15.057 0.91069ZM14.7404 1.37851C14.7353 1.3698 14.724 1.3667 14.7151 1.37195C14.7062 1.37721 14.7035 1.38856 14.7086 1.39727C14.7137 1.40598 14.725 1.40907 14.7339 1.40382C14.7428 1.39857 14.7456 1.38722 14.7404 1.37851ZM5.53978 7.07721L5.56649 7.14191L5.6613 7.1029L5.63459 7.0382L5.53978 7.07721ZM1.49501 9.89574L1.51443 9.7861C1.51716 9.77132 1.45706 9.77269 1.44641 9.77209L1.49501 9.89574ZM9.28023 5.28952C9.27509 5.28081 9.26383 5.27772 9.25492 5.28297C9.24601 5.28823 9.24327 5.29958 9.2484 5.30829C9.25354 5.317 9.2648 5.32009 9.27371 5.31484C9.28262 5.30958 9.28536 5.29823 9.28023 5.28952ZM1.70971 9.95582L1.66363 9.8825C1.65506 9.86895 1.62465 9.8843 1.60243 9.89511L1.70971 9.95582ZM1.76529 9.84689C1.74705 9.82129 1.75366 9.83056 1.77274 9.8571C1.81254 9.91151 1.80986 9.90793 1.76529 9.84689ZM3.65865 11.3312L4.08871 10.8303C4.11986 10.7939 4.19845 10.741 4.23243 10.7215C4.21033 10.6214 4.20109 10.5238 4.19814 10.4291L4.18875 10.128L4.18131 9.80116L4.17411 9.44898L4.17256 9.06713L4.17472 8.49757C4.04281 8.58422 4.17725 8.70507 3.97787 8.90908C3.96237 9.04476 3.89035 9.1651 3.8356 9.29386L3.66412 9.69699L3.60301 9.82951C3.57863 9.88224 3.54653 9.93352 3.51172 9.97437C3.47452 10.0713 3.44331 10.2051 3.40197 10.295L3.29647 10.5244C3.25668 10.6111 3.18019 10.8194 3.18498 10.8945C3.45157 11.0493 3.40404 11.185 3.65865 11.3312ZM1.81843 9.95642L1.70706 10.0367L1.81222 10.0511C1.82493 10.0528 1.82207 10.0324 1.82121 10.012L1.81843 9.95642ZM1.96783 9.8878C1.9627 9.87909 1.95144 9.87599 1.94252 9.88125C1.93361 9.8865 1.93087 9.89785 1.93601 9.90656C1.94114 9.91527 1.9524 9.91837 1.96131 9.91311C1.97022 9.90786 1.97297 9.89651 1.96783 9.8878ZM1.93021 10.2813C1.92507 10.2726 1.91381 10.2695 1.9049 10.2747C1.89599 10.28 1.89325 10.2914 1.89838 10.3001C1.90352 10.3088 1.91478 10.3119 1.92369 10.3066C1.9326 10.3014 1.93534 10.29 1.93021 10.2813ZM2.49144 12.6429C2.73662 12.4211 2.48617 12.5879 2.75019 12.3796C2.96156 12.2129 2.8523 12.1284 3.05451 12.0364C3.0804 11.896 3.2103 11.836 3.1763 11.7745C3.12753 11.6864 3.03457 11.7518 2.8843 11.4912L2.86782 11.6397L2.93539 11.6695C2.87685 11.8199 2.82543 11.9665 2.7531 12.1076C2.72134 11.9339 2.83704 11.8445 2.86084 11.6885C2.74779 11.7082 2.72618 12.0193 2.6377 12.1728C2.56479 12.2994 2.47084 12.3791 2.48067 12.5233L2.42442 12.5894C2.41666 12.5986 2.48238 12.6508 2.49144 12.6429ZM4.33583 12.0797C4.39703 11.9706 4.34928 11.7703 4.30314 11.6741C4.29744 11.662 4.33566 11.6051 4.32627 11.5955C4.31687 11.5858 4.29268 11.5589 4.29759 11.5643L4.08639 11.8191C4.11234 11.9314 4.21795 12.0364 4.33583 12.0797ZM12.1016 7.01766C12.0965 7.00895 12.0852 7.00585 12.0763 7.01111C12.0674 7.01636 12.0647 7.02771 12.0698 7.03642C12.075 7.04513 12.0862 7.04823 12.0951 7.04297C12.104 7.03772 12.1068 7.02637 12.1016 7.01766ZM11.05 7.7611C11.0459 7.78183 11.0352 7.82136 11.0489 7.82329C11.058 7.82455 11.0966 7.82842 11.0958 7.82659C11.1305 7.91461 11.0631 7.69123 11.05 7.7611ZM12.2589 7.085C12.2714 7.09939 12.295 7.1255 12.2975 7.11174L12.3067 7.06192C12.3084 7.05264 12.2532 7.07831 12.2589 7.085ZM12.1292 7.19923C12.1282 7.18349 12.1071 7.26264 12.126 7.27328L12.2112 7.32125L12.2631 7.35018C12.893 7.70224 11.7859 6.99912 12.1292 7.19923ZM12.4613 7.29545C12.4292 7.21244 12.39 7.16142 12.3124 7.16996L12.4613 7.29545ZM9.04007 9.23417C8.97631 9.26375 8.94666 9.27894 8.93628 9.28849L9.04007 9.23417ZM4.51121 12.2016C4.50608 12.1929 4.49482 12.1898 4.4859 12.195C4.47699 12.2003 4.47425 12.2116 4.47939 12.2203C4.48452 12.229 4.49578 12.2321 4.50469 12.2269C4.5136 12.2216 4.51635 12.2103 4.51121 12.2016ZM4.57035 12.3353C4.5814 12.3434 4.63037 12.3678 4.62799 12.3589L4.61906 12.3244C4.61667 12.3155 4.56244 12.3297 4.57035 12.3353ZM4.68799 12.4417L4.68773 12.4966L4.82708 12.4977L4.82734 12.4429L4.68799 12.4417Z" fill="#94FA59"/>
</svg>
