<?xml version="1.0" encoding="UTF-8"?>
<svg id="Layer_1" data-name="Layer 1" xmlns="http://www.w3.org/2000/svg" viewBox="0 0 200 200">
  <defs>
    <style>
      .cls-1 {
        fill: none;
      }

      .cls-2 {
        fill: #fff;
      }
    </style>
  </defs>
  <path class="cls-2" d="M90.74,144.42c-8.83-1.75-21.85-1.94-29.12-.81-16.66,2.63-25.67,18.47-22.79,33.25,2.76,13.9,16.59,24.48,31.37,22.35,14.09-2,24.17-13.34,24.86-29.8.25-6.01.31-21.54-4.32-24.98ZM137.26,72.23c-15.53,0-28.18,12.59-28.18,28.18s12.65,28.18,28.18,28.18,28.18-12.65,28.18-28.18-12.59-28.18-28.18-28.18ZM94.24,73.92l-21.6-2.07c-18.78-1.88-34.31,10.89-34.38,28.49-.06,15.78,13.34,29.37,31.31,28.61,7.95-.31,15.97-1.06,25.3-2.32l-.63-52.72ZM165.25,26.64c-1.44-14.53-14.34-26.8-31.06-25.61l-24.61,1.82c-.56,19.41-.56,34,0,53.35,9.08,1,16.53,1.57,26.24,1.75,19.29.31,30.99-15.59,29.43-31.31ZM94.24,3.1l-21.6-2.13c-18.85-1.82-34.31,10.89-34.38,28.55-.06,15.72,13.34,29.37,31.31,28.61,7.95-.31,15.97-1.06,25.3-2.32l-.63-52.72Z"/>
  <path class="cls-1" d="M-7.44-8.92v221.72h215.52V-8.92H-7.44ZM109.59,2.85l24.61-1.82c16.72-1.19,29.62,11.08,31.06,25.61,1.57,15.72-10.14,31.62-29.43,31.31-9.71-.19-17.16-.75-26.24-1.75-.56-19.35-.56-33.94,0-53.35ZM72.64.97l21.6,2.13.63,52.72c-9.33,1.25-17.34,2-25.3,2.32-17.97.75-31.37-12.9-31.31-28.61.06-17.66,15.53-30.37,34.38-28.55ZM72.64,71.85l21.6,2.07.63,52.72c-9.33,1.25-17.34,2-25.3,2.32-17.97.75-31.37-12.84-31.31-28.61.06-17.59,15.59-30.37,34.38-28.49ZM95.06,169.4c-.69,16.47-10.77,27.8-24.86,29.8-14.78,2.13-28.61-8.45-31.37-22.35-2.88-14.78,6.14-30.62,22.79-33.25,7.26-1.13,20.29-.94,29.12.81,4.63,3.44,4.57,18.97,4.32,24.98ZM137.26,128.58c-15.53,0-28.18-12.65-28.18-28.18s12.65-28.18,28.18-28.18,28.18,12.59,28.18,28.18-12.59,28.18-28.18,28.18Z"/>
  <path class="cls-2" d="M38.27,100.34c.06-17.59,15.59-30.37,34.38-28.49l21.6,2.07.63,52.72c-9.33,1.25-17.34,2-25.3,2.32-17.97.75-31.37-12.84-31.31-28.61Z"/>
  <path class="cls-2" d="M38.27,29.52c.06-17.66,15.53-30.37,34.38-28.55l21.6,2.13.63,52.72c-9.33,1.25-17.34,2-25.3,2.32-17.97.75-31.37-12.9-31.31-28.61Z"/>
  <path class="cls-2" d="M90.74,144.42c4.63,3.44,4.57,18.97,4.32,24.98-.69,16.47-10.77,27.8-24.86,29.8-14.78,2.13-28.61-8.45-31.37-22.35-2.88-14.78,6.14-30.62,22.79-33.25,7.26-1.13,20.29-.94,29.12.81Z"/>
  <path class="cls-2" d="M165.44,100.4c0,15.53-12.59,28.18-28.18,28.18s-28.18-12.65-28.18-28.18,12.65-28.18,28.18-28.18,28.18,12.59,28.18,28.18Z"/>
  <path class="cls-2" d="M109.59,56.2c-.56-19.35-.56-33.94,0-53.35l24.61-1.82c16.72-1.19,29.62,11.08,31.06,25.61,1.57,15.72-10.14,31.62-29.43,31.31-9.71-.19-17.16-.75-26.24-1.75Z"/>
  <path d="M135.82,57.95c-9.71-.19-17.16-.75-26.24-1.75-.56-19.35-.56-33.94,0-53.35l24.61-1.82c16.72-1.19,29.62,11.08,31.06,25.61,1.57,15.72-10.14,31.62-29.43,31.31Z"/>
  <path d="M94.87,55.82c-9.33,1.25-17.34,2-25.3,2.32-17.97.75-31.37-12.9-31.31-28.61.06-17.66,15.53-30.37,34.38-28.55l21.6,2.13.63,52.72Z"/>
  <path d="M94.87,126.64c-9.33,1.25-17.34,2-25.3,2.32-17.97.75-31.37-12.84-31.31-28.61.06-17.59,15.59-30.37,34.38-28.49l21.6,2.07.63,52.72Z"/>
  <path d="M95.06,169.4c-.69,16.47-10.77,27.8-24.86,29.8-14.78,2.13-28.61-8.45-31.37-22.35-2.88-14.78,6.14-30.62,22.79-33.25,7.26-1.13,20.29-.94,29.12.81,4.63,3.44,4.57,18.97,4.32,24.98Z"/>
  <path d="M165.44,100.4c0,15.53-12.59,28.18-28.18,28.18s-28.18-12.65-28.18-28.18,12.65-28.18,28.18-28.18,28.18,12.59,28.18,28.18Z"/>
</svg>