<?xml version="1.0" encoding="UTF-8"?>
<svg xmlns="http://www.w3.org/2000/svg" viewBox="0 0 1200 200">
  <defs>
    <style>
      .cls-1 {
        fill: #fff;
      }

      .cls-2 {
        fill: #f25766;
      }
    </style>
  </defs>
  <g id="Layer_1" data-name="Layer 1">
    <g id="andet">
      <g>
        <rect x="-.6" y=".04" width="1200.27" height="200.47"/>
        <path class="cls-1" d="M512.51,2.26c-170.36-.02-340.72-.05-511.08-.07.08,65.27.16,130.54.24,195.81,87.21-.23,174.43-.47,261.64-.7l.54-5.29c-5.59.15-9.08-6.94-8.32-10.47.15-.69,3.25-2.21,2.61-2.53-.48-.24-2.44-1.62-3.19-1.51l-29.24,4.28-3.46,5.95c-.33.58-2.14,1.18-2.77,1.11-.43-.05-.51-1.03-.45-1.45l.36-2.49-3.86,3.36-4.52-7.07,8.77-8.43c5.73-5.5-.85-9.65,21.98-19.63,2.53.74,6.94,1.81,8.81,2.85l7.56,4.21c1.01,2.4,4.17,5.52,5.2,4.1.08-2.93.3-6.04.73-7.67,1.73,1.24,3.33,2.87,3.54,2.22l.83-2.57.95-2.92c.17-.53,1.12.51,1.55,1.09l1.47,1.97,2.72-5.8,1.59,3.63c.33.76,4.38.05,4.99-.51l6.78-6.22,3.78-3.7c.68-.67,2.38.91,3.31,1.46l2.62-9.49c4.75,3.1,8.38,1.81,10.93-1.62l2.35,2.03c-3.55-3.06,4.87,9.24,2.09,13.06l3.5-3.68-1.08,10.22c1.47,1.8,2.05,3.06,2.73,4.88l3.93,10.56c1.4,3.77.48,9.7.24,14.04l-.66,12.04h82.07l.46-4.29c3.47-1.25,5.79-2.84,7.69-5.22l3.66,6.43-1.39-7.26,9.1,2.88-2.47-6.61,2.92-8.19c.82-2.3,3.87-6.14,5.13-8.82-1.64-.63-3.51-.64-3.32-1.33l.84-2.94c-3.6-2.82-6.72-6.66-7.96-11.49-.54.49-2.58,2.96-3.58,2.45l-4.42-2.27c-.59.09-2.2,1.75-2.82,1.41l-2.48-1.36c-.79-.43-2.7-1.57-3.28-1.12l-2.59,2-.21-3.45c-.03-.51-2.69.9-3.1.59l-8.2-6.21c-1.18-.89-4.38-1.42-5.72-1.39l.29-3.23c.11-1.25-6.55-1.9-9.7-6.69.02-.07-2.17,2.29-2.4,1.66l-1.06-3.01c-3.15.99-16.14-4.26-15.7-8.95.11-1.22,1.28-4,.15-4.33-3.89-1.11-10.84-4.7-14.57-5.32-4.28-.71-7.44-1.13-11.7-2.3-1.94-.53-3.39,3.39-4.48,6.61l.12-7.98-4.11,1.05c-.83.21-2.4-1.55-4.17-2.9l-.12,6.67,6.04,2.49c-2.58,1.9-7.08,2.45-8.64.52-.17-.84.17-2.84-.45-3.29l-3.17-2.32,2.03,9.5c.17.81-1.81,3.43-1.03,3.73l4.25,1.61c1.1.42-1.79,3.29-2.76,2.77l-5.47-2.9,3.19,5.5c-.93.18-4.4-1.36-4.89-2.59-.42-1.02-.19-3.28-.07-5.16-4.31-1.27-15.21-14.93-14.36-18.62,2.05-8.91,4.69-16.65,5.09-24.79.2-4.07-.23-7.89,1.19-11.62-.59-1.24-1.3-2.32-.82-3.1l2.27-3.7-3.16-.51c-.78-.13-.5-4.07-.2-3.52l2.14,2.43c.24.27,1.62-.74,1.47-.8-4.26-7.28,3.07-3.36,2.39-15.69l3.65,1.88c2.26,1.17,3.94-7.73,4.22-9.59l1.14-7.8,3.57,5.38,1.38-4.02c.35-1.01-2.5-1.93-3.53-2.99,3.3-.37,5.48-.05,8.49.5-2.64-2.75-3.47-8.74-.49-10.69l1.97,2.21c.38.43,1.69.55,2.04.09l1.96-2.54c.79-1.03,2.68,2.7,3.56,4.43l5.42-7.11c1.3.24,4.12.76,3.95.72l-.28-4.64,8.37-1.68c-.25.17-2.75,2.41-2.02,3.07l3.13,2.86c-1.56,1.12-3,1.74-3.22,5.21l8.88-6.53c.03-.15,2.04,3.4,2.47,2.61l2.37-4.37c2.88-.55,8.35.59,11.65,1.79l9.69,3.53c-.87-1.85-2.73-4.23-1.66-4.83l4.19-2.36c.78-.44-.68-3.75.19-3.93.87-.18,3.99-.27,4.51.45l1.17,1.63c1.69-1.62,3.8-2.55,5.08-1.33l-9.79,7.31,5.45,3.32c.02-2.13-.3-4.81.54-5.38l7.7-5.27,2.17,7.1c-9.57-2.67,9.4,9.45,10.55,14.92.96-5.54-2.09-10.09-4.67-15.46l4.56,1.01c.84.19.6,1.55,1.23,3.29,1.02-1.45,2.09-5.16.83-5.96l-6.6-4.22c5.62-2.15,9.69-1.99,12.94-.48l2.72,4.71c-.64,4.14.28,11.38,5.64,12.13l-.38,2.13c-.06.36.63.63.86.32l1.48-1.96c.51-.68,2.68-2.99,1.84-3.16l-4.48-.92,4.87-8.68c.47,3.3.23,6.22,1.34,7.33,1.16,1.16,4.43,3.31,5.27,3.59-2.31-4.06-4.12-7.66-2.24-9.8,2.34,1.26,6.02,2.89,6.98,2.53l-1.26-5.67c-.33-1.47,2.47-4.14,3.55-3.41l8.53,6.19-4.36.94,3.71,7.74,4.15,1.87c.8.36-.3,2.87-.12,3.73l.6,2.81c.12.57,1.83-.03,1.91-.63l.97-6.9c1.78,4.59,1.51,8.74,1.51,13.37l3.74,3.31-2.59,1.92s4.09,3.68,4.44,2.39c.18-.67.43-2.44.43-3.58.01-12.81,1.06,3.81,1.79-11.55.04-.8,2.47-.34,2.61.47l1.72,10.14c.4,2.35.32,4.03,1.38,5.47.95,1.29,2.41.88,3.77-.37.86,2.03,1.73,4.15,2.78,5.08,2.84,2.51,9.64-.96,10.14-1.55.67-.8,1.19-3.61,1.12-4.85l-.41-7.87c.86-.34,4-2.19,3.72-3.56l-1.17-5.77-6.41,7.09c3.88-5.77,4.29-10.85,1.39-15.45-.84-1.34.33-5.08.36-6.62.02-1.02-.87-3.77-.01-3.94.86-.17,3.49.09,3.48.96l-.03,3.18,4.66,1.29-4.98,4.11,2.69,10.16c2.28-3.49,1.2-5.38.06-11.01l4.88,6.26-.82-14.82c4.58-.47,9.16-.94,13.74-1.41ZM258.43,27.91c-.79.28-2.93.45-2.98,1.14l-.28,4.06-2.89-.39c-.8-.11-1.7,2.46-2.19,3.16l-2.15,3.1c-.51.73-2.73-.93-3.46-1.17-2.7,2.45-5.8,7.22-9.53,2.8l-6.25,4.57,11.8.81-3.73,5.1c-.32.44-2.75-.65-2.74-.11,0,.75.1,2.54.57,3.2l2.08,2.92c-.73-1.03-2.98,12.9-4.29,12.4l-12.74,6.29,3.9,10.2c-4.02,1.15-15.46-.55-19.36-3.53l-6.42,4.41,1.4-5.31-2.89-1.99c-.73-.5.9-3.98.31-4.59l-8.97-7.71,1.28,6.02c-1.31,4.3-2.58,8.75-2.66,12.55-10.92,2.35-21.86,2.84-32.97.76-2.25-2.64-3.83-7.31-4.65-10.81l-.57-2.46c-.15-.64-2.65-.37-2.76.27l-.4,2.28c-1.69,2.35-2.6,4.14-3.41,7.57l-22.07-2.89c3.79-7.54,13.24-5.6,11.8-13.52-3.11,4.77-18.17,12.76-22.1,7.48l8.42-7.79-.47-2.55c.39,2.12,7.25-6.82,12.48-6.72.29-1.51.12-3.32.87-3.32l5.23.02c2.09.41,3.42.55,4.27,1.22,1.03.8-.28,4.6-1.41,5.32l-2.06,1.3c-.55.35,1.02,2.18,1.63,1.94,16.74-6.43,13.29-8.89,33.08-9.79,7.21-.33,12.78,1.6,20.53,4.98l4.23-2.66c-1.62-2.56-3.11-3.17-6.43-2.42l-7.25-4.95-14.32-.48c-.91-.17,1.55-3.05,2.63-3.1l12.54-.58c.99-.05,3.9.99,4.44.23l2.36-3.31,1.68,2.75c.32.53,1.83-1.63,2.34-2.06l9.79-4.99-6.35-2.69c-1.27-.54-.59-3.31-.27-5.5.13-1.6-3.72-2.47-6.15-2.77l.06-3.57c.01-.64-.59-2.02-.86-2.65-.25-.58-1.63,1.13-2.13,1.68l-2.46,2.73c-.82.91-2.89-3.93-4.65-6.53-.68-1-4.31.33-5.35-.29l-7.23-4.31c-2.04,1.96-3.55,3.38-5.6,3.91-1.54.4-2.58-2.32-3.42-5.01l-2.64,5.22-7.26-5.17,5.52.7-5.46-5.02,4.78,1.01-.15-3.51c-.03-.81,2.57-2.33,3.97-2.33l50.81-.02c2.33,0,6.12.72,7.13.92l2.24,6.35c1.45,4.11,10.89.11,10.99-.1l2.65-5.54c2.63,1.34,4.51,2.07,7.42,2.5l4.1,7.31c2.77-1.77,6.47-3.8,8.48-4.13l8.06,7.09-5.05.76c-1.05.16.02,3.87,1.06,3.74l7.17-.94-4.67,6.45ZM339.89,122.19c1.53-1.43,6.44-1.82,7.42-.14,5.84,9.99,10.12,2.45,11.46,10.1l-12.73-2.76-2.73-3.32c-1.29.26-4.56-2.81-3.42-3.87Z"/>
        <path d="M513.46,1.62c-.29,65.71-.57,131.42-.86,197.12l-108.55.13.72-5.98c3.47-1.25,5.79-2.84,7.69-5.22l3.66,6.43-1.39-7.26,9.1,2.88-2.47-6.61,2.92-8.19c.82-2.3,3.87-6.14,5.13-8.82-1.64-.63-3.51-.64-3.32-1.33l.84-2.94c-3.6-2.82-6.72-6.66-7.96-11.49-.54.49-2.58,2.96-3.58,2.45l-4.42-2.27c-.59.09-2.2,1.75-2.82,1.41l-2.48-1.36c-.79-.43-2.7-1.57-3.28-1.12l-2.59,2-.2-3.45c-.03-.51-2.69.9-3.1.59l-8.2-6.21c-1.18-.89-4.38-1.42-5.72-1.39l.29-3.23c.11-1.25-6.55-1.9-9.7-6.69.02-.07-2.17,2.29-2.4,1.66l-1.06-3.01c-3.15.99-16.14-4.26-15.7-8.95.11-1.22,1.28-4,.15-4.33-3.89-1.11-10.84-4.7-14.57-5.32-4.28-.71-7.44-1.13-11.7-2.3-1.94-.53-3.39,3.39-4.48,6.61l.12-7.98-4.11,1.05c-.83.21-2.4-1.55-4.17-2.9l-.12,6.67,6.04,2.49c-2.58,1.9-7.08,2.45-8.64.52-.17-.84.17-2.84-.45-3.29l-3.17-2.32,2.03,9.5c.17.81-1.81,3.43-1.03,3.73l4.25,1.61c1.1.42-1.79,3.29-2.76,2.77l-5.47-2.9,3.19,5.5c-.93.18-4.4-1.36-4.89-2.59-.42-1.02-.19-3.28-.07-5.16-4.31-1.27-15.21-14.93-14.36-18.62,2.05-8.91,4.69-16.65,5.09-24.79.2-4.07-.23-7.89,1.19-11.62-.59-1.24-1.3-2.32-.82-3.1l2.27-3.7-3.16-.51c-.78-.13-.5-4.07-.2-3.52l2.14,2.43c.24.27,1.62-.74,1.47-.8-4.26-7.28,3.07-3.36,2.39-15.69l3.65,1.88c2.26,1.17,3.94-7.73,4.22-9.59l1.14-7.8,3.57,5.38,1.38-4.02c.35-1.01-2.5-1.93-3.53-2.99,3.3-.37,5.48-.05,8.49.5-2.64-2.75-3.47-8.74-.49-10.69l1.97,2.21c.38.43,1.69.55,2.04.09l1.96-2.54c.79-1.03,2.68,2.7,3.56,4.43l5.42-7.11c1.3.24,4.12.76,3.95.72l-.28-4.64,8.37-1.68c-.25.17-2.75,2.41-2.02,3.07l3.13,2.86c-1.56,1.12-3,1.74-3.22,5.21l8.88-6.53c.03-.15,2.04,3.4,2.47,2.61l2.37-4.37c2.88-.55,8.35.59,11.65,1.79l9.69,3.53c-.87-1.85-2.73-4.23-1.66-4.83l4.19-2.36c.78-.44-.68-3.75.19-3.93.87-.18,3.99-.27,4.51.45l1.17,1.63c1.69-1.62,3.8-2.55,5.08-1.33l-9.79,7.31,5.45,3.32c.02-2.13-.3-4.81.54-5.38l7.7-5.27,2.17,7.1c-9.57-2.67,9.4,9.45,10.55,14.92.96-5.54-2.09-10.09-4.67-15.46l4.56,1.01c.84.19.6,1.55,1.23,3.29,1.02-1.45,2.09-5.16.83-5.96l-6.6-4.22c5.62-2.15,9.69-1.99,12.94-.48l2.72,4.71c-.64,4.14.28,11.38,5.64,12.13l-.38,2.13c-.06.36.63.63.86.32l1.48-1.96c.51-.68,2.68-2.99,1.84-3.16l-4.48-.92,4.87-8.68c.47,3.3.23,6.22,1.34,7.33,1.16,1.16,4.43,3.31,5.27,3.59-2.31-4.06-4.12-7.66-2.24-9.8,2.34,1.26,6.02,2.89,6.98,2.53l-1.26-5.67c-.33-1.47,2.47-4.14,3.55-3.41l8.53,6.19-4.36.94,3.71,7.74,4.15,1.87c.8.36-.3,2.87-.12,3.73l.6,2.81c.12.57,1.83-.03,1.91-.63l.97-6.9c1.78,4.59,1.51,8.74,1.51,13.37l3.74,3.31-2.59,1.92s4.09,3.68,4.44,2.39c.18-.67.43-2.44.43-3.58.01-12.81,1.06,3.81,1.79-11.55.04-.8,2.47-.34,2.61.47l1.72,10.14c.4,2.35.32,4.03,1.38,5.47.95,1.29,2.41.88,3.77-.37.86,2.03,1.73,4.15,2.78,5.08,2.84,2.51,9.64-.96,10.14-1.55.67-.8,1.19-3.61,1.12-4.85l-.41-7.87c.86-.34,4-2.19,3.72-3.56l-1.17-5.77-6.41,7.09c3.88-5.77,4.29-10.85,1.39-15.45-.84-1.34.33-5.08.36-6.62.02-1.02-.87-3.77-.01-3.94.86-.17,3.49.09,3.48.96l-.03,3.18,4.66,1.29-4.98,4.11,2.69,10.16c2.28-3.49,1.2-5.38.06-11.01l4.88,6.26c-.35-5.53-.69-11.07-1.04-16.6l14.9-.14ZM368.96,80.12c.59-.66,4.13-1.35,3.94-.54l-.99,4.13,12.87,1.38c-4.36-5.52-9.83-9.5-16.58-10.17l-10.19-1.02c-.73-.07-2.9-.88-3.04-.27l-.43,1.8-3.62,3.42c-.67-.97-2.53-3.58-3.33-2.95l-3.18,2.47c-.67.52-1.71,2.99-1.24,3.45,4.25,1.68,10.48-2.17,13.56-4.69,2.17,2.98,8.19,7.52,12.22,3Z"/>
        <path d="M322.22,197.29h-58.91l.54-5.29c-5.59.15-9.08-6.94-8.32-10.47.15-.69,3.25-2.21,2.61-2.53-.48-.24-2.44-1.62-3.19-1.51l-29.24,4.28-3.46,5.95c-.33.58-2.14,1.18-2.77,1.11-.43-.05-.51-1.03-.45-1.45l.36-2.49-3.86,3.36-4.52-7.07,8.77-8.43c5.73-5.5-.85-9.65,21.98-19.63,2.53.74,6.94,1.81,8.81,2.85l7.56,4.21c1.01,2.4,4.17,5.52,5.2,4.1.08-2.93.3-6.04.73-7.67,1.73,1.24,3.33,2.87,3.54,2.22l.83-2.57.95-2.92c.17-.53,1.12.51,1.55,1.09l1.47,1.97,2.72-5.8,1.59,3.63c.33.76,4.38.05,4.99-.51l6.78-6.22,3.78-3.7c.68-.67,2.38.91,3.31,1.46l2.62-9.49c4.75,3.1,8.38,1.81,10.93-1.62l2.35,2.03c-3.55-3.06,4.87,9.24,2.09,13.06l3.5-3.68-1.08,10.22c1.47,1.8,2.05,3.06,2.73,4.88l3.93,10.56c1.4,3.77.48,9.7.24,14.04l-.66,12.04Z"/>
        <path d="M119.4,80.57c3.79-7.54,13.24-5.6,11.8-13.52-3.11,4.77-18.17,12.76-22.1,7.48l8.42-7.79-.47-2.55c.39,2.12,7.25-6.82,12.48-6.72.29-1.51.12-3.32.87-3.32l5.23.02c2.09.41,3.42.55,4.27,1.22,1.03.8-.28,4.6-1.41,5.32l-2.06,1.3c-.55.35,1.02,2.18,1.63,1.94,16.74-6.43,13.29-8.89,33.08-9.79,7.21-.33,12.78,1.6,20.53,4.98l4.23-2.66c-1.62-2.56-3.11-3.17-6.43-2.42l-7.25-4.95-14.32-.48c-.91-.17,1.55-3.05,2.63-3.1l12.54-.58c.99-.05,3.9.99,4.44.23l2.36-3.31,1.68,2.75c.32.53,1.83-1.63,2.34-2.06l9.79-4.99-6.35-2.69c-1.27-.54-.59-3.31-.27-5.5.13-1.6-3.72-2.47-6.15-2.77l.06-3.57c.01-.64-.59-2.02-.86-2.65-.25-.58-1.63,1.13-2.13,1.68l-2.46,2.73c-.82.91-2.89-3.93-4.65-6.53-.68-1-4.31.33-5.35-.29l-7.23-4.31c-2.04,1.96-3.55,3.38-5.6,3.91-1.54.4-2.58-2.32-3.42-5.01l-2.64,5.22-7.26-5.17,5.52.7-5.46-5.02,4.78,1.01-.15-3.51c-.03-.81,2.57-2.33,3.97-2.33l50.81-.02c2.33,0,6.12.72,7.13.92l2.24,6.35c1.45,4.11,10.89.11,10.99-.1l2.65-5.54c2.63,1.34,4.51,2.07,7.42,2.5l4.1,7.31c2.77-1.77,6.47-3.8,8.48-4.13l8.06,7.09-5.05.76c-1.05.16.02,3.87,1.06,3.74l7.17-.94-4.67,6.45c-.79.28-2.93.45-2.98,1.14l-.28,4.06-2.89-.39c-.8-.11-1.7,2.46-2.19,3.16l-2.15,3.1c-.51.73-2.73-.93-3.46-1.17-2.7,2.45-5.8,7.22-9.53,2.8l-6.25,4.57,11.8.81-3.73,5.1c-.32.44-2.75-.65-2.74-.11,0,.75.1,2.54.57,3.2l2.08,2.92c-.73-1.03-2.98,12.9-4.29,12.4l-12.74,6.29,3.9,10.2c-4.02,1.15-15.46-.55-19.36-3.53l-6.42,4.41,1.4-5.31-2.89-1.99c-.73-.5.9-3.98.31-4.59l-8.97-7.71,1.28,6.02c-1.31,4.3-2.58,8.75-2.66,12.55-10.92,2.35-21.86,2.84-32.97.76-2.25-2.64-3.83-7.31-4.65-10.81l-.57-2.46c-.15-.64-2.65-.37-2.76.27l-.4,2.28c-1.69,2.35-2.6,4.14-3.41,7.57l-22.07-2.89Z"/>
        <path d="M358.77,132.15l-12.73-2.76-2.73-3.32c-1.29.26-4.56-2.81-3.42-3.87,1.53-1.43,6.44-1.82,7.42-.14,5.84,9.99,10.12,2.45,11.46,10.1Z"/>
        <path class="cls-1" d="M368.94,80.23c-4.03,4.52-10.05-.02-12.22-3-3.08,2.52-9.32,6.37-13.56,4.69-.47-.45.56-2.93,1.24-3.45l3.18-2.47c.8-.63,2.66,1.98,3.33,2.95l3.62-3.42.43-1.8c.15-.61,2.31.2,3.04.27l10.19,1.02c6.75.68,12.21,4.65,16.58,10.17l-12.87-1.38.99-4.13c.2-.81-3.35-.12-3.94.54Z"/>
      </g>
    </g>
  </g>
  <g id="Layer_2" data-name="Layer 2">
    <g id="CTAAAA">
      <path class="cls-2" d="M806.37,22.73v149.9h369.54V22.73h-369.54ZM1126.52,131.56l-18.46,24.47-18.47-24.47-29.87-20.9,35.87,2.65V42.5h23.89v70.89l36.92-2.73-29.88,20.9Z"/>
      <path d="M1162.03,109.34c-18.18,17.06-36.36,34.13-54.54,51.19-18.18-17.06-36.36-34.13-54.54-51.19l40.47,2.99V32.44h26.95v79.98l41.65-3.08Z"/>
      <path class="cls-1" d="M851.75,82.63c-3.52,0-6.41-.24-8.67-.73-2.27-.47-4.04-1.34-5.32-2.62-1.27-1.28-2.16-3.12-2.67-5.53-.5-2.41-.75-5.54-.75-9.4v-.94c0-3.19.16-5.86.47-8.02.31-2.17.85-3.94,1.62-5.3.77-1.36,1.8-2.4,3.12-3.12,1.33-.72,2.99-1.2,4.99-1.45,2-.27,4.41-.4,7.22-.4h9.45c2.81,0,5.22.13,7.22.4,2,.25,3.66.73,4.97,1.45,1.33.72,2.38,1.76,3.14,3.12.77,1.36,1.3,3.12,1.62,5.3.31,2.16.47,4.83.47,8.02v.94c0,3.86-.26,6.99-.77,9.4-.5,2.41-1.39,4.25-2.67,5.53-1.27,1.28-3.03,2.16-5.3,2.62-2.27.48-5.16.73-8.67.73h-9.45ZM851.75,78.74h9.45c2.23,0,4.12-.08,5.65-.23,1.53-.16,2.77-.49,3.73-1.01.97-.52,1.7-1.3,2.2-2.34.52-1.05.87-2.45,1.05-4.2s.28-3.95.28-6.61v-.94c0-2.75-.09-5.02-.28-6.8-.19-1.78-.54-3.19-1.05-4.22-.5-1.03-1.23-1.78-2.2-2.25-.95-.48-2.2-.79-3.73-.91-1.53-.14-3.41-.21-5.65-.21h-9.45c-2.23,0-4.12.07-5.65.21-1.53.12-2.78.43-3.75.91-.95.47-1.69,1.22-2.2,2.25-.5,1.03-.84,2.44-1.03,4.22-.19,1.78-.28,4.05-.28,6.8v.94c0,2.66.09,4.86.28,6.61s.53,3.15,1.03,4.2c.52,1.05,1.25,1.83,2.2,2.34.97.52,2.22.85,3.75,1.01,1.53.16,3.41.23,5.65.23ZM884.2,81.88v-27h4.5v3.35c.67-.91,1.48-1.66,2.41-2.27.94-.61,2.13-1.06,3.59-1.36,1.47-.31,3.34-.47,5.63-.47,2.83,0,5.13.38,6.91,1.15,1.78.77,3.09,2.09,3.94,3.96.77-1.19,1.69-2.16,2.77-2.91,1.08-.77,2.43-1.32,4.05-1.66,1.64-.36,3.66-.54,6.05-.54,2.84,0,5.16.39,6.94,1.17,1.78.77,3.09,2.08,3.91,3.94.84,1.86,1.27,4.41,1.27,7.64v15h-4.5v-15c0-2.47-.26-4.34-.77-5.62-.52-1.3-1.38-2.18-2.58-2.65-1.19-.48-2.8-.73-4.83-.73-3.98,0-6.83.59-8.53,1.76-1.69,1.17-2.53,3.09-2.53,5.74v-.02c.02.48.02.99.02,1.52v15h-4.5v-15c0-2.47-.26-4.34-.77-5.62-.52-1.3-1.38-2.18-2.58-2.65-1.19-.48-2.8-.73-4.83-.73-3.98,0-6.83.59-8.53,1.76-1.69,1.17-2.53,3.09-2.53,5.74v16.5h-4.5ZM956.27,81.88v-36h6.7l21.77,29.37,21.45-29.37h6.7v36h-4.5v-31.92l-21.49,29.55h-4.08l-22.05-29.55v31.92h-4.5ZM1019.96,81.88v-25.5h4.5v25.5h-4.5ZM1019.96,50.38v-4.5h4.5v4.5h-4.5ZM1046.51,92.17c-2.39,0-4.57-.06-6.54-.19-1.95-.11-3.63-.39-5.04-.84-1.41-.44-2.49-1.14-3.26-2.11-.77-.95-1.15-2.27-1.15-3.94h4.5c0,1.09.42,1.88,1.27,2.34.86.47,2.14.75,3.84.84,1.7.09,3.83.14,6.38.14,1.89,0,3.51-.06,4.85-.19,1.34-.11,2.44-.45,3.28-1.01.86-.56,1.48-1.51,1.88-2.84.41-1.31.61-3.16.61-5.55v-.63c-1.09,1.41-2.6,2.34-4.52,2.79-1.91.45-4.27.68-7.1.68s-5.41-.16-7.48-.49c-2.06-.34-3.74-.98-5.04-1.92-1.28-.94-2.22-2.3-2.81-4.08-.59-1.78-.89-4.11-.89-6.98,0-3.06.3-5.52.89-7.36.59-1.84,1.53-3.23,2.81-4.15,1.3-.94,2.98-1.55,5.04-1.85,2.06-.31,4.56-.47,7.48-.47s5.2.21,7.1.63c1.92.41,3.43,1.32,4.52,2.74v-2.86h4.5v24.14c-.06,2.97-.44,5.33-1.12,7.08-.69,1.77-1.67,3.08-2.95,3.94-1.27.88-2.83,1.45-4.69,1.71-1.84.28-3.96.42-6.35.42ZM1057.12,68.19c0-2.23-.14-4.02-.42-5.34-.27-1.34-.8-2.35-1.59-3.02-.78-.69-1.95-1.14-3.49-1.36-1.53-.23-3.57-.35-6.12-.35-2.69,0-4.82.12-6.4.35-1.56.22-2.73.67-3.49,1.36-.76.67-1.26,1.68-1.5,3.02-.22,1.33-.33,3.11-.33,5.34,0,2.03.11,3.69.33,4.97.24,1.28.73,2.27,1.48,2.95.76.69,1.94,1.16,3.51,1.43,1.58.25,3.71.38,6.4.38,2.55,0,4.59-.12,6.12-.38,1.55-.27,2.71-.74,3.49-1.43.8-.69,1.33-1.67,1.59-2.95.28-1.28.42-2.94.42-4.97Z"/>
    </g>
  </g>
</svg>