<?xml version="1.0" encoding="UTF-8"?>
<svg id="Layer_1" data-name="Layer 1" xmlns="http://www.w3.org/2000/svg" viewBox="0 0 200 200">
  <defs>
    <style>
      .cls-1 {
        fill: none;
      }
    </style>
  </defs>
  <path class="cls-1" d="M-38.49-41.67V238.39H235.38V-41.67H-38.49ZM199.38,182.84c-1.82,8.82-7.73,14.82-17.91,16.73l-161.49-.18c-10.91,0-19.46-8.64-19.46-19.46V16.98C2.24,8.98,8.61,1.07,16.88,1.07l166.13-.09c8.55,1.09,14.37,7.37,16.37,16.09v165.76Z"/>
  <path d="M183.01.98l-166.13.09C8.61,1.07,2.24,8.98.52,16.98v162.94c0,10.82,8.55,19.46,19.46,19.46l161.49.18c10.18-1.91,16.09-7.91,17.91-16.73V17.07c-2-8.73-7.82-15-16.37-16.09ZM102.45,88.54c-2.18,16.64-15.28,26.37-34.83,26.55l-12.28.09c-2.91.09-1.64,9-2,12.37l-1.64,14.91c-.36,3.27-13.18.45-14.82-1.55l-.18-85.02c13.37-.82,26.82-1.09,40.83-.55,17.46.73,26.73,18.82,24.91,33.19ZM161.46,136.19c-13.55,12-32.92,12-46.56,1.09-2.27-1.82-6.46-9.18-3.91-10.27,2.55-1.18,9.55-1.36,12-.18l15,7.18c3.91,1.82,14.73-6.27,12.37-9.91-8.09-12.73-37.37-6-39.19-25.28-.82-9.46,4.91-18.82,14.09-21.64,15.28-4.64,33.92-3.27,39.46,14.91-4.55,2.91-14.28.91-20-3.18-5.82-4.18-20.73-.64-17.73,7.27,4,10.55,31.28,5.36,38.19,19.82,2.36,5,.55,16.46-3.73,20.19Z"/>
  <path class="cls-1" d="M77.53,55.35c-14-.55-27.46-.27-40.83.55l.18,85.02c1.64,2,14.46,4.82,14.82,1.55l1.64-14.91c.36-3.36-.91-12.28,2-12.37l12.28-.09c19.55-.18,32.64-9.91,34.83-26.55,1.82-14.37-7.46-32.46-24.91-33.19ZM77.99,99.18c-7.27,2.09-17.09,2.09-24.55,1.46l-.36-32.28c8.27.18,17.64.55,24.55,1.64,3.82.64,9,9.55,9.37,13.55.36,4.46-4.55,14.37-9,15.64Z"/>
  <path class="cls-1" d="M161.46,136.19c-13.55,12-32.92,12-46.56,1.09-2.27-1.82-6.46-9.18-3.91-10.27,2.55-1.18,9.55-1.36,12-.18l15,7.18c3.91,1.82,14.73-6.27,12.37-9.91-8.09-12.73-37.37-6-39.19-25.28-.82-9.46,4.91-18.82,14.09-21.64,15.28-4.64,33.92-3.27,39.46,14.91-4.55,2.91-14.28.91-20-3.18-5.82-4.18-20.73-.64-17.73,7.27,4,10.55,31.28,5.36,38.19,19.82,2.36,5,.55,16.46-3.73,20.19Z"/>
  <path d="M86.99,83.54c.36,4.46-4.55,14.37-9,15.64-7.27,2.09-17.09,2.09-24.55,1.46l-.36-32.28c8.27.18,17.64.55,24.55,1.64,3.82.64,9,9.55,9.37,13.55Z"/>
</svg>