<?xml version="1.0" encoding="UTF-8"?>
<svg id="Layer_3_G" data-name="Layer 3 G" xmlns="http://www.w3.org/2000/svg" viewBox="0 0 816 285">
  <defs>
    <style>
      .cls-1 {
        fill: #94fa59;
      }
    </style>
  </defs>
  <path class="cls-1" d="M268.47,239.07s-.03,2.16-.03,2.86l-2.59-.6c-.45-.11.35-1.56.8-1.69l1.82-.56h0Z"/>
  <path class="cls-1" d="M394.49,37.99l-2.7-.16.78-2.38c.14-.42,1.76.28,1.79.73l.12,1.81h0Z"/>
  <path class="cls-1" d="M568.24,30.42c.34.66-.06-.12-.98-1.91l1.07-2.63c.19-.46,1.93.4,1.71.85l-1.8,3.68h0Z"/>
  <path class="cls-1" d="M268.43,241.93l4.71-4.3c-.88-.68-3.12-1.96-3.13-1.34-.01.8-.5,1.79-1.54,2.78l-.63-2.83c-.13-.58-1.9,1.14-2.24,1.32-.13-7.94,1.59-15.01,4.98-22.6l7.04-15.78,3.67-8.35,5.08-8.12c.43-.68-.28-2.94.39-3.39l3.29-2.18c.92-4.89,3.9-12.48,6.56-17.29l4.2-7.59-11.48,2.66c-2.64.61-6.17,1.61-8.89,2.53l-25.55,8.61c-1.12-.1-3.71.04-4.72.04-2.15,2.23-6.63,2.1-8.84,3.04-5.38,2.3-11.07,4.84-16.99,4.12l-4.51,3.68c-1.59,4.45-3.61,9.26-5.83,13.69l-7.21,14.42c-1.66,3.33-3.85,6.52-5.82,9.41.25.61-.1,1.2-1.09,2.33l.3,4.5c.07,1.11-2.14,3.17-3.23,2.84l-3.23-.97c-.57-.17-.76,1.7-.47,2.22.2.34,1.06,1.52,1.08,1.91l.26,8.14c.56.05-1.78,1.11-2.21.54l-2.05-2.7c-.74-.98-2.47-3.61-3.35-2.89l-3.41,2.8c2.92-.02,5.48-.63,6.01.31l2.13,3.73c.27.48,2.8,1.41,2.33,1.71-.51.33-1.71,1.21-2.26,1.21h-1.6l-5.23-2.59.2,3.09c.04.58-1.24,1.56-1.39,2.13-.11.4,1.32,1.8,1.55,1.45l1.27-1.92c.52-.79,1.33-1.8,1.99-1.77.66.03,2.57,1.36,2.13,1.84l-2.18,2.39c1.02.44,3.25,1.71,2.6,2.61l-3.04,4.19c-.42-1.19.19-3.55-.57-3.46l-3.37.42c-.76.1.56,3.05.68,3.9.37,2.73-.28,6.46-.36,9.32-.06,1.99,0,16.98-3.78,16.52l-2.6-.32c-.59,1.98-1.94,5.03-3.57,5.19-8.06.79-5.04-6.3-9.96-3.11,1.14,1.14,2.61,2.11,2.19,2.56l-1.73,1.82c-.45.47-4.45-.41-6-7.67l-1.27-5.97c-.58-2.73-.69-4.46-.38-7.5.31-3.04-1.05-8.34-.5-11.5.65-3.75,1.27-5.03-1.32-8.35l.4-10.31c-1.1-3.18-1.46-5.48-2.02-8.33-1.35-6.98-3.54-13.67-3.94-20.89-.09-1.64-.61-4.39-1.73-4.96-2.62-1.33-6.76,3.35-14,4.16-5.63.63-9.4,2.95-14.65,4.69l-6.01,1.99c-5.76,1.9-11.43,4.23-17.52,5.81-4.02,1.04-7.18,2.46-11.04,4.07l-8.02,3.35c-3.06,1.28-7.88,1.93-10.59,3.25l-7.2,3.5c-2.89,1.4-5.68,2.81-8.8,4.01l-11.21,4.31c-5.3,2.04-10.41,6.09-16.17,5.92-.77,1.06-2.07,4.5-3.23,4.28l-5.32-1c-3.37-.63-9.45-1.66-10.64-4.38.35-4.27-1.43-7.54-3.85-10.05l5.69-7.71c1.91-2.58,11.54-9.99,13.86-11.36,5.37-3.17,8.25-6.48,13.09-9.8l12.38-8.5c12.58-8.64,5.33-6.34,14.99-13.36l9.47-6.88c10.76-7.82,20.23-16.79,31.09-24.23,6.89-4.73,13.37-8.25,18.27-13.71,4.1-4.57,10.44-8.21,15.55-11.89-6.89-14.92-4.91-16.08-10.14-33.3-1.13-3.72-1.4-5.93,1.63-9.55l-3.83-2.93c2.01-1.01,4.22-1.69,4.71-2.75.49-1.06-.05-3.32-.36-4.86l-5.37,6.08c.31.64-1.8-3.72-1.91-3.95,2.29-.23,4.32-.55,4.01-1.41-.25-.68-1.33-2.25-2.04-3.12-1.04-1.28.77-4.21,2.21-5.76l-3.61-2.23,2.47-2.04c.24-.2-1.15-.31-1.48-.29l-1.91.16c-.75.08,1.33-3.17,2.19-2.94l3.65,1c.62-.46-.35-4.39-1.52-4.5-.93-.09-3.27.28-3.56,1.17l-1.17,3.53c-1.6-1.04-3.99-2.43-3.66-3.48l1.12-3.51c2.98,1.95,6.98,2.14,8.61-.04-1.48-1.64-3.24-3.27-.71-4.18l3.19,9.97c-.91,1.73-1.85,2.73-1.34,3.45l2.24,3.16c.28.39.79,2.13.91,2.59-.41-1.58,6.59-.31,8.6-3.95,1.2-2.18.65-4.23-.6-7.53l5.54,2.01-5.82,11.56c1.02,2.07,2.3,3.08,1.97.27.62-1.91,1.09-3.7,1.82-3.49l3.04.86c-1.69,1.03-6.81,8.59-3.99,7.62l2.44-.84,5.5,8.96c.49.8,2.75,2.11,2.57,3.02-.14.73-1.47,2.62-1.21,3.3l3.2,8.5c-.84-2.22,2.5,12.67,6.14,11.58,4.95-1.49,10.12-10.58,22.9-16.92,5.23-2.6,7.48-7.75,15.98-12.02,4.46-2.24,6.95-4.46,10.7-7.45l8.95-7.14,10.54-8.55,12.13-7.66,10.94-8.16,8.72-6.25c10.16-7.27,10.67-4.23,16.65-11.03,2.49-2.83,7.15-4.17,10.49-5.85,5.19-4.8,13.61-9.86,20.51-4.9,1.92,1.38,5.23,4.53,6.62,5.83-4.82,7.47,3.68,5.68-2.31,13.18l-5.77,7.21-10.01,12.44c-.4.5-4.75,9.99-8.24,11.12l-9.33,16.28c-1.34,2.33-3.29,4.18-5.49,5.36-1.58,7.11-7.38,12.76-10.95,19.38l-7.44,13.76c-4.01,7.41-8.68,13.43-12.34,20.91l-2.43,4.96c3.39-1.16,6.52-1.7,10.18-2.47,2.6-.55,5.09-3.15,8.67-2.07,7.43-7.74,2.46-10.77,3.8-11.56l3.85-2.26c-.39-5.21,2.07-10.47,6.84-13.95l.87-4.38c3.33-.27,9.29-13.86,10.82-17.19,4.07-8.84,9.67-10.87,12.99-20.6.3-.88,3.37-1.84,3.46-2.79l.41-4.03c3.99-4.59,7.16-8.75,10.85-14.49l4.2,4.55-2.52-7.7c.89.06,3.47.45,3.74,1.48l1.42,5.47c-.12.37,1.69-.65,1.63-1.29l-.3-3.51c1.84.51,3.1,2.75,4.52,5.79l.59-5.06c-.63-.38,2.67.53,3.64.97.9.41-.48,2.19-1.27,4.2l5.33.87-4.68,2.55,4.94,2.75-5.12,6.59c.57,7.14-4.45,11.51-7.55,16.37-4.91,7.71-8.52,15.8-13.97,22.87-1.96,2.55-3.35,4.87-5.15,7.97-3.03,5.21-7.02,10.07-7.95,16.08,2.84-2.31,5.36-3.28,8.82-3.94l11.75-2.27c2.33-.45,5.5-2.12,7.39-2.69l10.32-3.13,22.74-6.85,4.94-9.84,3.61-7.19c1.62-3.23,2.73-7.74,4.39-11.26l4.17-8.89c2.28-4.86,3.97-10.82,7.18-15.12,3.01-4.03,5.34-7.97,5.76-13.49,1.86-1.67,5.35-3.66,7.75-4.67l.69,2.4c.1.36.98-.79,1.21-1.12l.8-1.13c2.54-.34.85-3.48.43-6.53l7.21,7.5-.22-4.42c1.4.74,2.94,1.99,3.1,1.39.19-.71.49-1.55.3-1.98l-1.18-2.68,2.68,2.11c.49.38-1.02,2.49-1.11,3.12l-1.1,7.13,3.32-.71c3.93-.84-1.56,17.47-4.22,21.93l-4.55,7.62-4.99,12.01c-4.4,10.58-7.61,11.23-5.26,15.79,3.98-4.15,8.51-1.87,12.09-3.12,4.36-1.53,8.63-2.66,13.2-3.87l7.83-2.07,12.73-3.66c3.16-.91,6.68-1.97,10.54-2.48,13.39-1.77,9.52-2.18,17.46-20.24l6.28-7.33c-3.17-4.18-.35-6.32.68-9.59.88-2.81,1.86-5.21,3.61-7.53l6.34-8.36,1.44-6.75c.44-2.07,1.03-3.98,2.37-4.86,2.84-1.88,4.05-.98,6.98,1.17l-.62-5.17,5.58-2.98,2.2,5.41c.95-3.82,1.84-7.12,3.4-6.79l5.38,5.77-2.36,5.28,4.4.2-2.6,1.51c-5.25,3.05,4.93-.35,5.16-.2.96.65,3.34,2.4,3.44,2.53-.93,1.53-1.48,2.2-1.4,2.64.08.44.26,1.54.36,1.98-2.86,9.4,1.12.38,2.1,18.08l.81,14.69c.08,1.43,1.32,4.64,2.65,4.9,4.64.93.68-1.89,13.13-4.18,2.27-.42,5.52-1.79,7.85-1.97,10.34-.8-.18-5.49,6.85-10.26l-2.08-8.86c-.47-1.98,3.22-5.71,4.03-6.83-2.11-2.07-4.79-4.56-4.33-6.32.55-2.11,1.87-5.04,2.98-5.96l-.34,8.52c.79.09,2.19.32,2.34-.14,2.9-8.8,2.47-.5,4.26-9.72l-5.08,2.81,1.33-6.69c4.5,3.46,4.95,4.63,7.96,9.18l-1.65-7.77c3.75-.92,4.88,5.43,6.77,4.49l3-1.49-2.73,5.49c2.43.79,5.42,2.77,7.49,5.49l-8.69-.11c.74.76,3.11,1.97,4.82,2.38,1.16.27,2.29-.83,4.42-2.15l-1.73,9.12,2.55,11.18,17.39-2.75c4-.63,7.12.7,11.03-4.04l-8.87-5.24c-3.24-1.91-8.08-4.69-10.74-7.3l-7.88-7.71c-2.54-2.49-5.51-4.78-8.68-6.86l4.54.02-6.24-3.34c-2.71,1.19-4.38,1.31-6.14.79l5.31-3.81,2.68,2.7c.41.41,2.03-1.12,1.9-1.69l-.53-2.27c-.3-.65-1.77-2.04-1.38-2.62l1.49-2.23c-1.03.18-3.1.63-3.35,1.47l-.95,3.22-3.29-2.62c1.52-.71,3.77-1.63,3.81-2.52l.15-3.85c1.71.41,4.5,1.43,4.36.5l-.59-4.07c-.08-.54.43-1.4.95-1.43.61-.04,2.37.16,2.41.7l.26,2.8c1.22-1.11,3.63-3.41,4.9-2.62l5.58,3.45c1.62,1,4.16,1.98,5.79,3.64.78.79,3.7.88,4.66,1.45,2.69,1.6,6.47,7.04,9.19,8.46l9.03,4.72c3.54,1.85,6.29,4.72,9.45,7.22,6.13,4.86,10.6,5.84,15.66,11.07,5.59,4,13.48-1.32,19.55-1.36,18.44-.14,6.77-4.27,19.05-2,6.12-3.52,13.77-5.43,21.07-3.49l15-5.22c2.24-.78,5.8-.29,7.64-.52l9.74-1.23,8.68-2.17,15.11-1.24c1.71-.14,3.78-.08,5.68.05,2.39-.53,6.49-2.03,9.11-2.4l9.54-1.35,4.96,7.21c-1.86,1.62-3.03,4.03-2.72,5.89l5.32-5.54-5.37-7.32,10.31-.82-5.02,4.77,5.14-1.15,1.89,2.77,5.44-2.62-5.1-2.11,3.14-4.97c.28,2.64-.79,4.62.12,5.11l3.85,2.06-1.17,1.89c-.24.39.08,1.36.51,1.61l2.06,1.2c.41.24-.81,2.08-1.15,1.8-1.04-.83-2.17-2.31-2.66-1.84l-1.46,1.42c-.65-1.66-1.53-3-3.16-3.25.54,3.69,1.86,6.19,4.6,9.15.05-2.74-.13-2.5-.41-3.29-.17-.5,1.18-2.11,1.53-1.71.35.4,1.72,2.34,1.64,2.87-.16.99-2.88,3.42-3.83,3.1l-3.98-1.38-1.47,2.38c-.29.47,2.01,1.2,2.53,1.45l2.6,1.2c.5.23-1.08,1.72-1.55,1.44l-1.75-1.04c-.84-.5-3.55-1.05-4.18-.32-.5.59-.74,1.8-1.02,3.04-.18.81-1.49,2.43-2.24,2.09-.57-.26-2.09-1.22-2.44-1.73l-3.36-4.86c-8.81,12.11-15.28,8.43-17.62,8.84l-16.4,2.86c-1.36.24-4.16-.9-5.23-.17-2.79,1.9-6.59,1.33-8.98,1.88-1.35.31-4.13,2.61-5.65,3.16-1.14.41-2.86-.99-4.08-2.02-1.54,1.16-4.54,2.72-7.25,3.16l-10.19,1.66-13.02,2.72c-4.3.9-8.64,1.8-13.01,2.19l-7.6.67c-3.93,1.37-10.29,3.49-14.68,4.12l-6.78.98c-6.96,1-13.88,3.56-21.03,5.02-12.59,2.56-16.78,1.84-25.3,4.23l-11.86,3.33c-.9.25-3.63,1.38-2.95,1.94l2.69,2.18c1.76,1.43,3.07,3.47,4.27,5.42l4.3,7.05c1.35,2.21,4.44,5.38,4.34,7.69-.14,3.16.25,4.88,1.4,7.4l-3.76-.57,3.27,5.51c-4.21-2.01-10.42-3.13-11.9,1.11-.25.71-.6,2.86-.76,3.57-.16.71-2.26-.09-2.95-.37l-2.36-.96c-.49-.2-.49-1.81-1-1.96-.63-.18-2.6-.02-2.74-.61l-.47-2.01c-2.43-.75-4.48-2.44-5.51-5.68,0-.25-2.22.71-2.17,1.59l.19,3.47-.04,12.56-.43,8.15.32,10.07.13,16.81c0,1.14-2.27,3.83-1.74,4.67.59.95,2.29,2.82,1.92,3.54l-1.52,2.91c.73,2,1.86,4.95,1.47,6.64-.35,1.5-2.9,4.33-3.66,5.08l-2.33-2.26c-.48,2.57,2.14,3.94,4.94,4.72l-2.32,1.96c-.37.31-.27,2.31-.43,2.52l-3.95-.35c1.04,1.97,3.57,2.96,6.49,3.52.07-.06-1.28,1.01-1.25,1.53l.11,2.57-6.33-3.61c-.11,4.83,2.93,3.76,7.45,5.42l-10.72,4.86c-.22.36.33,2.26,1.02,2.03l2.68-.91c.83-.28,3.42-1.24,3.93-.53l1.35,1.86-2.62-.43c-.33-.05-.85.78-.62,1.04l1.56,1.79c.45.52-1.72.44-2.37.15l-2.62-1.15c-.49-.21-.22,1.78.21,2.1l2.86,2.11c-1.74,1.39-5.85,3.94-6.95,4.4-.15-3.78.14-4.93,1.19-1.4,1.03-.65,2.35-1.49,2.28-2.17l-.37-3.5-4.07,1.79.86-7.21.66-5.56-3.72,4.13c-1.19-1.16-5.24-1.28-8.45-.87.03.58-.08-1.35-.12-2.15-.03-.57,1.02-.34,1.57-.07l3.24,1.62c.74-.07.07-3.7-1.01-4.02l-4.24-1.23c5.76-8.54-2.87-5.24,3.27-12.43l-3.28.12c-.71.03-1.01-2.56-.94-3.4l1.19-13.34c.15-1.68-1.03-5.1-.99-6.77l.2-7.81.11-9.24c.04-3.61-.09-19.04-.17-21.77l-.34-11.91.18-11.15c.05-3.21-.49-7.62-.73-11.3l-10.67,2.07c-3.6.7-6.5,2.28-10.32,2.15-7.58-.24-4.61,18.19-4.61,17.41v9.84l-.03,8.4c-.06,14.55,1.83,16.51-.41,35.05-.47,3.89-.36,6.71.63,9.98l-.29,5.88c-.03.58.6,2.07.69,2.67.06.4-.73.59-1.14.48l-2.82-.78.92,3.06c.24.79,2.06,1.12,3.54,1.75l-7.26,4.87,5.4-1.49c.22,2.33-1.63,4.63-4.24,6.1-.71,1.87-.22,3.31,1.13,1.03,2.09-1.14,3.16-1.34,1.49.45l-.95,4.58c-1.03.94-1.94,1.33-1.93,2.07l.04,4.17c-2.8,6.63.64-20.22-2.09-10.09l-.62,2.28-2.01,7.45,2.7,1.24c.5.23-1.45,1.58-2.67,2.71.06.09-1.65-2.33-2.32-3.28-.57-.81.96-2.99,1.08-3.93-1.42-.92-3.51-1.77-3-2.46.46-.63,1.49-2.04,1.48-2.03,1.39,2.27,1.96,3.2,1.04,1.7l3.13-6.29-2.54,2.64c-.37.39-1.47.23-1.47-.29v-3.24c1.03-1.57.55-1.29-1.05.24l-5.29-.36c1.51.87,4.26,2.1,4.69,3.31.63,1.77-4.75,3.65-5.68,2.21-.7-1.09-1.39-2.68-2.14-4.51l-4.97-4.82c4.59-1.46,5.07,2.03,8.66,1.89l-5.26-4.55c-1.09-.95-.37-3.79-.54-5.29l-2.07-18.43c-.38-3.36.42-6.74.66-10.17.37-5.46-.83-11.57-.88-17l-.25-24.25-.14-14.12c-18.13,11.1-12.47-4.65-22.73,18.78-.15,4.81-2.97,10.16-6.3,13.26.09,2.35-.16,6.35-1.25,8.39l-4.7,8.79c-5.59,10.46-4.18,13.81-9.82,25.05-1.57.53-2.29.55-2.15,1.06l.74,2.69-6.8,4.45,3.77,4.21-4.43,5.92.06-9.59c-2.06-1.35-2.29-1.27-1.15,2.55.84-.17-.55.11-2.24.46-1.2.31-2.86,1.47-3.53.86-.67-.61-2.47-2.26-2.05-1.88,2.84-2.07,4.43-3.88,4.33-5.65-1.29,1.48-1.89,2.78-2.65,2.8l-3.66.12c-.75.03.2,3.03-.02,3.73-.22.7-1.88.65-2.96.67-3.52.05-.08-2.77-2.35-4.4l-2.69-1.93,6.04.61-6.96-3.96c3-2.52,4.85-3.28,7.78-3.01l-4.16-6.64c-.86-1.37,2.45-4.16,3.64-5.34-.29-5.7,3-15.28,6.22-19.39l.47-4.22c.09-.82,1.56-1.23,2.36-1.86-.15-3.93,1.18-6.58,3.82-9.02l2.03-7.87,3.01-6.32c-7.62,1.65-13.96,3.3-21.41,4.41-2.49.37-3.9.24-6.28,1.93-1.08.77-19.15,5.97-22.52,6.37,2.65,4.48,4.88,10.87,5.96,16.67l3.56,19.12c2.01,10.77-2.44,9.22-.11,11.08l3.1,2.48c2.4,12.44-1,19.17,4.49,29.08l-4.64-1.17c-2.63-.66-1.26,8.79-5.19,5.03l-3.54-3.38.66,8.49c.06.75.41,2.32.93,2.07.38-.19,1.74-.63,1.67-.62-.06,0-.46-1.32-.59-1.92-.18-.84,1.03-2.84,1.87-2.77,1.39.11,3.21.45,3.79-.16l3.12-3.29c.7,3.94-2.73,6.28-5.76,7.34l-3,2.66c-.67.59-3.66,0-3.64-.92l.12-5.94c.16-.2-1.61,2.14-2.51,3.29-.51.65-.04,1.45.41,3.13l-6.71-3.28,4.85-2.46-3.85-3.41c-.5-.44-2.82,0-2.77-.63l.28-3.04c-1.01-.44-3.43-.76-3.53-1.66l-.45-4.31c-1.42-13.76,3.04-1.14-2.5-21.3l-3.3-12.01c-1-3.64-1.09-8.1-2.17-11.43l-2.1-6.45c-.34-1.04-1.2-3.45-2.2-3.39-1,.06-2.89,2.02-3.2,2.98l-4.25,13.15-4.62,11.8-4.06,12.28-4.24,8.84c.89-1.86-5.83,20.34-6.89,21.41-3.35,3.36-4.26,8.18-1.93,11.66l-10.43,6.91c-.48.32-1.75.89-2.24,1.09-.49.2-.7-1.61-.33-1.99l1.64-1.71-5.75-1.54,1.92,3.73c.37.72-2.16,1.66-3,1.84l.14-5.22c-4.79-.07-8.03-3.31-7.62-7.98l.75-8.78c6.82-4.28-.17-4.28,6.64-16.65,1.5-2.73,1.94-7.49,2.8-11.04,4.45-18.35,7.71-16.4,9.67-23.75l2.25-8.4c1.15-4.29,5.75-8.18,2.34-12.16l-3.12,3.58c-.59.67-2.07-.48-2.95-.98l.8,2.76c.1.35-6.14,13.68-7.36,15.89l-3.36,6.07-6.54,14.17c-2.55,5.53-5.25,11.74-8.49,16.62-4.61,6.94-11.42,22.5-13.91,30.35-1.07,3.38-4.99,7.16-5.23,11.4-.08,1.48-2.85,4.46-4.15,3.82l-5.03-2.45-6.25,3.58.54,5.82c-2.62-2.27-1.2-4.94-.86-6.99-1.41.07-4.37-.26-4.35-1.37l-.08-.03ZM568.95,7.56c.1.66.44,2.16.82,1.71l1.33-1.56c.25-.29-2.21-.51-2.15-.15ZM503.03,18.01c.1.89.4,2.35.77,1.88l1.39-1.75c.24-.31-2.2-.45-2.16-.12h0ZM498.43,21.98c1.45,1.38,2.42,2.41,2.57,1.92l.62-2.06c.15-.49-1.02-.2-3.19.14ZM487.65,23.75c0-.41-.33-.75-.75-.75s-.75.34-.75.75.33.75.75.75.75-.34.75-.75ZM767.24,26.81c1.82-3.64,1.54-3.71.34-3.09l-2.73,1.41c-2.04.34-1.93.46.83.51,1.88,2.54,2.52,3.15,1.56,1.17ZM762.15,28.05l1.72,2.71c.28.44.19-1.88.12-2.4-.04-.35-2.04-.63-1.84-.32h0ZM770.19,32.61c2.18-1.63,4.37-3.46,5.13-4.96l-7.31,3.81c-2,1.6-.66,1.59,2.19,1.15h-.01ZM786.96,28.46c0-.41-.33-.75-.75-.75s-.75.34-.75.75.33.75.75.75.75-.34.75-.75ZM483.53,29.05c0-.41-.33-.75-.75-.75s-.75.34-.75.75.33.75.75.75.75-.34.75-.75ZM557.76,32.59c0-.41-.33-.75-.75-.75s-.75.34-.75.75.33.75.75.75.75-.34.75-.75ZM774.58,33.77c0-.41-.33-.75-.75-.75s-.75.34-.75.75.33.75.75.75.75-.34.75-.75ZM769.65,39.89c.71-.15,3.2-.64,2.9-1.38l-1.74-4.32-1.16,5.69h0ZM783.52,34.56c-.4.43-1.76,2.55-1.21,2.58l2.39.13c.56.03.76-1.55.45-2.02-.21-.31-1.38-.96-1.63-.69ZM762.8,44.38c0-.41-.33-.75-.75-.75s-.75.34-.75.75.33.75.75.75.75-.34.75-.75ZM323.51,53.95l-.4,2.81,4.12.59.4-2.81-4.12-.59ZM123.93,69.1l2.94-3.43c.4-.46-1.73-1.65-2.09-1.89l-.85,5.33h0ZM491.19,68.54c0-.41-.33-.75-.75-.75s-.75.34-.75.75.33.75.75.75.75-.34.75-.75ZM130.2,75.62l-.1-3.51c-.02-.65-1.4-.74-2.4-.82l2.51,4.33h-.01ZM134.39,72.96c-.11-1.27-.07-.81.05.51.27,2.72.25,2.54-.05-.51ZM170,163.8l13.29-4.52,12.08-4.12c1.84-.63,5.68-.86,7.27-.84,1.29-3.95,2.98-7.55,4.83-10.92l5.88-10.71,6.48-11.57,7.01-12.45,7.82-13.37,6.4-10.74,5.42-9.11c-6.4.31-4.19,7.3-15.37,10.32-3.34,4.42-8.34,7.14-12.91,10.51l-14.31,10.55-4.87,3.37c-1.94,1.34-4.12,2.47-6.18,3.18-3.3,2.62-7.15,6.65-10.45,8.94l-8.42,5.84c-3.18,2.21-10.15,7.91-11.53,10.63,6.13,10.9,1.66,14.66,7.55,25.01h0ZM133.99,77.88l-5.55.51,3.38,2.67c.41.32.73-.45,1.12-1.18l1.05-2ZM140.63,78.56c0-.41-.33-.75-.75-.75s-.75.34-.75.75.33.75.75.75.75-.34.75-.75ZM131.2,91.53c0-.41-.33-.75-.75-.75s-.75.34-.75.75.33.75.75.75.75-.34.75-.75ZM102.13,185.59c13.15-2.7.95-2.03,14.48-3.87,10.83-1.47,8.75-6.67,17.72-5.72,3.8-4.37,9.58-3.79,9.66-6.64.11-4.08-4.49-3.71-4.37-15.91l-3.64,4.85,1.75,2.43c-5.15,4.05-9.97,8.11-15.41,11.55,2.47-6.72,8.36-7.46,12.41-12.42-4.36-1.64-11.53,8.78-17.79,12.32-5.16,2.92-10.09,3.77-12.72,9.01l-3.33,1.15c-.46.16.77,3.36,1.25,3.27v-.02ZM178.25,203.9c4.39-2.55,6.85-10.53,7.22-14.84.05-.54,2.56-1.74,2.43-2.27-.13-.53-.42-1.97-.36-1.68l-12.64,4.55c-1.41,4.46.13,10.3,3.36,14.24h0ZM554.23,187.01c0-.41-.33-.75-.75-.75s-.75.34-.75.75.33.75.75.75.75-.34.75-.75ZM502.12,191.32c-.57.64-1.76,1.8-1.32,2.15.29.23,1.56,1.16,1.57,1.08-.6,3.79,1.66-5.4-.24-3.23h-.01ZM558.34,192.6c.14.76.43,2.16.8,1.73l1.35-1.55c.25-.29-2.21-.53-2.15-.18ZM551.45,193.93c.29-.57-2.08,1.76-1.64,2.52l1.99,3.43,1.22,2.08c14.77,25.27-9.44-22.09-1.56-8.03h-.01ZM561.08,204.12c.59-3.56.27-6.15-2.62-7.45l2.62,7.45ZM401.45,201.38c-2.84-.28-4.19-.36-4.75-.24l4.75.24ZM181.87,211.76c0-.41-.33-.75-.75-.75s-.75.34-.75.75.33.75.75.75.75-.34.75-.75ZM181.18,217.65c.22.51,1.43,2.37,1.53,2.01l.4-1.39c.1-.36-2.08-.98-1.92-.62h-.01ZM183.1,223.79l-1.14,1.91,4.85,2.91,1.14-1.91-4.85-2.91Z"/>
  <path class="cls-1" d="M141.09,210.29c-6,.34-10.87,2.51-16.36,4.47-15.81,5.67-31.12,10.69-47.95,15.58,6.7-7.29,16.05-6.88,24.23-9.99,13.95-5.31,27.36-10.33,42.11-13.92,2.66,4.08,11.56,55.51,6.01,50.93-.4-.33-1.31-2.16-1.35-3.16-.5-13.26-1.87-29.49-6.68-43.91h-.01Z"/>
  <path class="cls-1" d="M157.9,101.71c-2.98-9.98-6.37-17.23-7.09-26.54,3.98,7.57,5.42,13.97,8.29,22.5,11.09-6.91,21.45-14.59,32.33-22.47,12.65-9.17,23.89-19.35,38.18-26.78-12.7,11.85-26.3,20.97-39.88,30.93l-13.08,9.58c-6.08,4.46-11.64,8.42-18.75,12.78Z"/>
  <path class="cls-1" d="M357.14,89.37c-.76,5.39-3.42,9.67-6.15,15.83l-47.99,14.05,11.76-22.13,9.74-18.33,2.26-.32c.54-.08-.04,2.15-.36,2.71l-13.49,23.64c-1.92,3.36-3.02,5.92-4.43,10.15l40.93-11.79c2.28-4.52,3.79-8.78,7.73-13.81Z"/>
  <path class="cls-1" d="M432.52,83.21l-36.44,9.7,9.45-22.57c3.38-8.08,6.34-16.14,10.11-24.08,2.43-5.12,1.81-11.47,7.53-15.08l-22.77,57.68,32.17-8.53-.05,2.89h0Z"/>
  <path class="cls-1" d="M688.14,28.05c-11.26,3.12-22.41,4.65-34.21,6.74l-15.5,2.74-21.31-15.67c10.01.66,15.03,8.73,22.55,12.78l34.29-6.03c4.77-.84,9.09-1.99,14.18-.55h0Z"/>
  <path class="cls-1" d="M429.66,122.68l-26.95,8.01c1.31,8.08,6,14.54,4.4,23.69l-7.94-25.19,35.25-9.75-5.88,15.15c-1.39-4.67.26-4.86,1.13-11.9h-.01Z"/>
  <path class="cls-1" d="M525.83,138.35c.06,4.05.8,7.51-2.66,9.88l-.66-47.84c4.56-1.51,8.9-2.59,13.68-2.86-3.11,3.81-5.95,3.85-10.91,4.95l.54,35.88h.01Z"/>
  <path class="cls-1" d="M660.82,72.18c8.1-4.87,18.3-5.98,28.18-7.03,9.03-.96,17.14-4.76,26.76-2.88l-54.94,9.91Z"/>
  <path class="cls-1" d="M483.32,111.68c-6.94-4.13-12.18,32.46-17.17,31.8,2.78-11.78,7.08-21.37,11.53-32.17.95-2.31,6.97-3.49,8.55-1.8.47,6.64,1.28,12.99-.12,19.69l-2.79-17.52Z"/>
  <path class="cls-1" d="M247.91,131.93l6.94-4.02,12.94-27.99c.85-1.83,3.81-4.21,5.28-3.68l-16.05,33.3c-1.21,2.51-4.55,4.74-9.12,2.38h.01Z"/>
  <path class="cls-1" d="M280.1,179.21l5.59-14.62-7.53-.05c4.34-2.9,7.03-3.64,12.4-4.12l-19.88,43.3c-.29-9.46,6.28-16.29,9.42-24.52h0Z"/>
  <path class="cls-1" d="M367.89,162.87c-5.43,11.24-5.43,24.49-13.25,36.12l13.3-45.24c3.13,5.23,3.72,9.54,2.6,15.46l-2.65-6.35h0Z"/>
  <path class="cls-1" d="M108.32,139.01c5-5.91,11.82-10.81,18.57-16.51-2.45-8.27-5.61-15.8-6.62-24.87,4.65,8.42,6.45,17.06,9.53,26.25-7.03,5.52-12.61,10.47-21.48,15.13Z"/>
  <path class="cls-1" d="M597.27,86.32l4.35,7.07c-4.14-1.98-6.03-4.11-8.72-8.38l20.46-5c7.09-1.73,13.99-4.32,21.74-2.57l-37.83,8.87h0Z"/>
  <path class="cls-1" d="M540.12,131.82c-1.96,5.41-4.99-44.05-.92-37.76,1.61,12.84,1.48,24.44.92,37.76Z"/>
  <path class="cls-1" d="M451.95,78.1c-5.44,1.59-10.57,3.82-16.16,2.22l15.31-4.5,14.82-32.57c-1.68,13.2-9.34,22.79-13.97,34.85Z"/>
  <path class="cls-1" d="M367.57,67.19c-4.08,6.86-3.75,15-10.09,19.76,5.28-14.11,10.26-26.69,17.41-39.22-.43,7.09-3.79,13.52-7.32,19.46Z"/>
  <path class="cls-1" d="M226.93,181.1c-5.15,8.68-8.58,17.29-14.6,26.01,2.85-9.83,7.18-17.97,11.58-27.52,3.26-.99,6.67-1.82,10.37-2.45-1.18,1.81-5.17,3.11-7.35,3.96Z"/>
  <path class="cls-1" d="M488.32,181.46l-1.98-13.85c.14-10.33-1.14-19.93-.03-30.54,3.6,15.22,2.29,29.55,2.01,44.39Z"/>
  <path class="cls-1" d="M577.02,152.93c-2.03-9.79-2.77-19.06-1.36-29.55,3.25,9.33,3.35,18.99,1.36,29.55Z"/>
  <path class="cls-1" d="M538.63,50.34l-1.53-23c-.22-3.27.54-6.17,1.69-8.47l2.24,30.39.16,2.1c.04.6-2.49-.17-2.55-1.01h-.01Z"/>
  <path class="cls-1" d="M542.05,55.32c-5.1,5.65-13.32,5.75-20.51,7.16-1.82-1.72-1.99-6.2-.62-7.96l3.15,4.95,17.99-4.15h-.01Z"/>
  <path class="cls-1" d="M187.77,270.9c.51-8.01,3.81-14.79,6.83-21.56l5.54-12.39c-2.71,12.12-6.79,23.05-12.37,33.95Z"/>
  <path class="cls-1" d="M72.67,232.85l-29.02,10.82c-4.64-.56,36.13-17.81,29.02-10.82Z"/>
  <path class="cls-1" d="M274.65,164.13l-21.96,6.56.83,2.8,21.96-6.56-.84-2.8Z"/>
  <path class="cls-1" d="M103.36,143.16c-5.28,6.25-11.88,11.59-18.95,15.94,4.53-7.39,11.04-12.2,18.95-15.94Z"/>
  <path class="cls-1" d="M804.69,25.41c-.69-1.25-1.16-3.02-1.58-2.59l-2.12,2.18-1.36,1.4c-.22.22-.84.35-.82.04l.11-2.41-4.84-5.21c6.18,1.62,9.15,1.75,15.64-.19l-5.04,6.78h.01Z"/>
  <path class="cls-1" d="M130.14,50.77l5.35-.08-3.93-2.4,3.18-3.31,2.57,4.82c.56,1.05-1.5,2.69-2.74,3.82l.72,1.77c.25.61-.6,2.92-.73,2.55l-3.01-3.76c-.58-.73-2.23-.47-4.19-.76l2.78-2.65Z"/>
  <path class="cls-1" d="M131.56,48.3l-1.42,2.48c-.51,0-2.28-1.24-1.99-1.66.29-.42,1.24-1.93,1.69-1.7l1.72.88Z"/>
  <path class="cls-1" d="M525.7,171.79c-2.9-4.54-3.38-10.7-1.03-16.41,1.82,5.15,1.84,10.32,1.03,16.41Z"/>
  <path class="cls-1" d="M740.43,57.92c-6.42,1.78-12.18,2.96-19.18,3.19,5.6-3.58,12.06-4.78,19.18-3.19Z"/>
  <path class="cls-1" d="M457.49,165.38c0-5.7,2.17-11.23,6.18-15.55-.72,5.67-2.21,10.67-6.18,15.55Z"/>
  <path class="cls-1" d="M735.1,17.86l-12.56,2.58.55,2.68,12.56-2.58-.55-2.68Z"/>
  <path class="cls-1" d="M498.89,214.9l-1.01-4.58,2.17-2.62c1.08,5.42,2.93,8.15,7.27,8.56l-8.44-1.36h.01Z"/>
  <path class="cls-1" d="M234.52,45.13c2.98-4.76,7.8-7.64,13.11-9.12-4.13,3.98-7.88,6.89-13.11,9.12Z"/>
  <path class="cls-1" d="M587.72,46.56c-4.09,1.36-7.12,1.98-12.26,1.62l6-2.97c2.22-1.1,3.53-1.95,6.27,1.35h-.01Z"/>
  <path class="cls-1" d="M410.49,172.43c-1.79-4.82-3.26-9.41-2.38-15.19,2.65,4.97,3.1,9.99,2.38,15.19Z"/>
  <path class="cls-1" d="M131.4,41.9c-.87,1.12-3.46,2.7-6.24,3.41.84-2.16,1.8-4.78,2.45-6.23.12-.28,2.14.37,2.31.62l1.48,2.2Z"/>
  <path class="cls-1" d="M804.2,38.41l-5.65,1.77c.82-1.19,3.07-3.17,2.46-4.05l-3.7-5.37,7.19,4.99,1.43.49c.33.12.75.96.95,1.28.28.45-1.7.75-2.67.88h-.01Z"/>
  <path class="cls-1" d="M135.22,60.71c-2.18.98-4.84,2.11-5.47,1.16-.72-1.07-1.3-3.69-1.26-5.35l6.73,4.19Z"/>
  <path class="cls-1" d="M150.23,71.55c-3.76-3.27-4.32-7.22-3.95-11.59,2.13,3.32,3.39,6.87,3.95,11.59Z"/>
  <path class="cls-1" d="M518.77,35.14l-1.59-10.91c3.52,3.05,4.77,6.75,1.59,10.91Z"/>
  <path class="cls-1" d="M773.81,51.71c-2.17,1.84-6.32,1.89-9.55.92,2.48-2.32,5.32-2.24,9.55-.92Z"/>
  <path class="cls-1" d="M374.54,181.68c-3.55-2.8-4.73-6.6-2.11-10.38l2.11,10.38Z"/>
  <path class="cls-1" d="M577.98,167.54c-3.11-1.92-3.64-6.47.04-9.58l-.04,9.58Z"/>
  <path class="cls-1" d="M557.31,231.76l-2.12-7.91-1.79,2.13c-.22.26-1.3-.52-1.1-.72l4.23-4.45,1.53,7.81c.12.6,2.78,1.68,2.42,2.17-.47.66-2.98,1.69-3.17.96h0Z"/>
  <path class="cls-1" d="M278.25,83.86l-3.54,6.35,2.01,1.12,3.54-6.35-2.01-1.12Z"/>
  <path class="cls-1" d="M496.31,206.07l-3.9-1.68c-.68-.29-1.33-2.31-.64-2.52l3.13-.93,1.4,5.12h.01Z"/>
  <path class="cls-1" d="M555.43,16.06l-2.31,3.88c-1.73-1.95-3.09-3.78-3.63-4.92l5.94,1.04Z"/>
  <path class="cls-1" d="M427.23,188.95l-2.68,4.34-4.93-3.6,7.61-.74Z"/>
  <path class="cls-1" d="M558.83,5.72c.64.18,2.45,2.17,1.94,2.18l-2.53.03c-.73,0-2.38.66-2.98,1.09-.6.43-.54-2.2-.7-2.98-.19-.9,2.66-.77,4.26-.32h.01Z"/>
  <path class="cls-1" d="M425.05,21.47l-2.26,4.88,2.86,1.32,2.26-4.88-2.86-1.32Z"/>
  <path class="cls-1" d="M505.77,222.49c-2.1,4.77-2.54-2.56-.94-3.23.45-.19,2.17-.9,2.2-.88.04.03.9,1.71,1.22,2.32.25.49-.37.6-2.47,1.78h-.01Z"/>
  <path class="cls-1" d="M202.28,231.38l3.56-6.86c2.19,2.95.52,5.71-3.56,6.86Z"/>
  <path class="cls-1" d="M330.48,68.13l-2.52,5.24,2.44,1.18,2.52-5.24-2.44-1.18Z"/>
  <path class="cls-1" d="M127.4,35.12l-3.85,4.97c-.24-.85.33-3.99,1.23-5.07l1.55-1.85c.24-.29,1.3,1.66,1.07,1.95Z"/>
  <path class="cls-1" d="M811.1,34.19c.25.31.32,2.75.02,2.49l-1.65-1.45c-.4-.35-2.8-.96-2.43-1.36.5-.53,1.06-3.41,1.52-2.84l2.54,3.16Z"/>
  <path class="cls-1" d="M548.29,212.46l-2.15-5.76,3.48,1.22c1,.35-.31,3.36-1.33,4.54Z"/>
  <path class="cls-1" d="M285.85,244.57c-.39,1.3-5,4.19-6.11,2.58l-1.45-2.1c-.35-.51.8-2.23,1.18-1.75.52.65,1.27,1.84,1.7,1.79l4.69-.53h0Z"/>
  <path class="cls-1" d="M209.63,213.4l-1.65,4.95,2.12.71,1.65-4.95-2.12-.71Z"/>
  <path class="cls-1" d="M608.78,15.08l-1.14,2.19,4.62,2.42,1.14-2.19-4.62-2.42Z"/>
  <path class="cls-1" d="M487.49,191.15c-1.44-.02-1.54-4.51.01-4.82,1.4.07,1.48,3.83-.01,4.82Z"/>
  <path class="cls-1" d="M427.74,192.48c-2.06,1.51-.98.67,1.27-1.04l2.54-.34c.5-.07.41,1.52.55,2,.14.48-1.05.12-4.36-.63h0Z"/>
  <path class="cls-1" d="M76.14,164.93l4.58-4.62c.46,2.52-1.08,4.46-4.58,4.62Z"/>
  <path class="cls-1" d="M591.7,118.57c-.17-.42,2.47-1.01,2.56-.55l.55,2.88c.08.44-1.69,1.21-1.86.78l-1.25-3.11Z"/>
  <path class="cls-1" d="M498.45,203.32c.17-.36,1.74-.03,2.03.24.44.41,1.16,1.82.6,1.96l-2.55.63c-.58.14-.33-2.29-.07-2.83h0Z"/>
  <path class="cls-1" d="M552.73,213.21c-1.69,1.21-1.61,1.15-1.56.74.12-.96.8-3.96,1.28-3.86l2.4.49c.5.1-.87,1.42-2.12,2.63Z"/>
  <path class="cls-1" d="M759.99,52.7c.31-.21,2.09-.26,2.04.11-.08.56-.38,2.11-.94,2.09l-2.32-.1c-.56-.02.75-1.77,1.22-2.09h0Z"/>
  <path class="cls-1" d="M152.32,265.08c.07.34-.96,1.78-1.29,1.58s-1.05-.72-1.3-1c-.39-.42.11-1.46.55-2.73.3-.3,1.39-.93,1.49-.5l.56,2.64h0Z"/>
  <path class="cls-1" d="M37,244.71c1.02.02,3.15.36,2.75.8l-2.01,2.16c-.52.56-1.5-2.97-.74-2.96Z"/>
  <path class="cls-1" d="M386.57,212.05c-1.12-.12-2.89-.31-2.37-.26l1.46-3.2c.22-.48,1.84.36,1.69.86l-.78,2.59h0Z"/>
  <path class="cls-1" d="M550.19,231.3c.04-.42,2.42.13,2.24.52l-.75,1.63c-.17.38-.89.84-1.25,1.17-.47.43-.31-2.68-.24-3.31h0Z"/>
  <path class="cls-1" d="M418.14,187.79l.02-5.14,1.72,2.62c.42.64-.64,1.52-1.74,2.52Z"/>
  <path class="cls-1" d="M552.77,219.68l1.33-5.04c.91,1.72.82,3.49-1.33,5.04Z"/>
  <path class="cls-1" d="M565.71,219.57l-.44-2.99c-.1-.68,1.16-1.13,2.54-1.8l-2.11,4.78h.01Z"/>
  <path class="cls-1" d="M565.7,225.2c-1.31-.75-1.84-1.45-2.24-1.23l-2.35,1.33,1.39-6.15,3.19,6.05h.01Z"/>
  <path class="cls-1" d="M590.32,121.79c.21-.28,1.33.84,1.54,1.15.21.31.32.85-.02.86-.36.02-2.23.09-2.6.12-.54.04.57-1.42,1.08-2.13Z"/>
  <path class="cls-1" d="M512.24,221.91c.72,0,1.31-.59,1.31-1.31s-.59-1.31-1.31-1.31-1.31.59-1.31,1.31.59,1.31,1.31,1.31Z"/>
  <path class="cls-1" d="M546.89,217.4c-.18-.31,1.65-.07,1.89.22l1.06,1.27c.24.29-1.52.89-1.71.57l-1.23-2.06h-.01Z"/>
  <path class="cls-1" d="M499.43,220.29l-1-.23c-.05-4.01.24-3.53,1,.23Z"/>
  <path class="cls-1" d="M496.41,222.38c-1.64,3.38-1.4,3.02-1.43,2.7l-.28-3.06c-.04-.47,3.35.71,1.71.36Z"/>
  <path class="cls-1" d="M551.11,237.93l-4.75-.24c.56-.12,1.91-.04,4.75.24Z"/>
  <path class="cls-1" d="M132.8,40.91c.85-.24,2.6-.68,2.42-.16l-.7,2.04c-.18.52-2.27-1.72-1.72-1.87h0Z"/>
  <path class="cls-1" d="M716.49,21.76c-.26-.3,2.12-.28,2.52-.24.36.04.34.54.11.81l-1.23,1.43c-.25.29-1.09-1.64-1.4-2.01h0Z"/>
  <path class="cls-1" d="M260.07,27.42c.72,0,1.31-.59,1.31-1.31s-.59-1.31-1.31-1.31-1.31.59-1.31,1.31.59,1.31,1.31,1.31Z"/>
  <path class="cls-1" d="M519.48,38.81c-.11-.69,1.48.2,1.81.29.5.15-.61,1.31-1.05,2.08-.25.44-.7-1.96-.76-2.37Z"/>
  <path class="cls-1" d="M494.56,213.66c.72,0,1.31-.59,1.31-1.31s-.59-1.31-1.31-1.31-1.31.59-1.31,1.31.59,1.31,1.31,1.31Z"/>
  <path class="cls-1" d="M799.09,15.66c.55-.64,1.24,1.34.23,3.25-.04.07-1.29-.84-1.58-1.07-.43-.35.74-1.48,1.34-2.18h.01Z"/>
  <path class="cls-1" d="M802.55,20.03l-1.45-3.67c-.32-.82,1-2.51,2.09-3.52l-.63,7.18h-.01Z"/>
  <path class="cls-1" d="M265.18,246.32c1.26-.34,3.31-.85,3.09-.59l-1.79,2.07c-.33.39-1.77-1.35-1.3-1.48Z"/>
  <path class="cls-1" d="M564.16,230.74c-.16-.26,1.83.05,1.87.4.07.52.14,2.83-.13,2.38l-1.74-2.78Z"/>
  <path class="cls-1" d="M416.95,189.65l-1-.23c-.05-4.01.24-3.53,1,.23Z"/>
  <path class="cls-1" d="M392.2,34.05l-1-.23c-.05-4.01.24-3.53,1,.23Z"/>
  <path class="cls-1" d="M276.86,252.02c1.27.11.81.07-.51-.05-2.72-.27-2.54-.25.51.05Z"/>
  <path class="cls-1" d="M552.79,1.6c-.17-.28,1.45.2,1.89.28.44.08-.4,1.21-.54,1.82-.1.43-.94-1.39-1.36-2.1h0Z"/>
  <path class="cls-1" d="M511.35,20.99c1.27.11.81.07-.51-.05-2.72-.27-2.54-.25.51.05Z"/>
  <path class="cls-1" d="M802.62,31.15c-.24-.35,1.44.13,1.88.17.44.04-.61,1.39-.53,1.83.08.44-1.04-1.56-1.35-2.01h0Z"/>
  <path class="cls-1" d="M811.69,20.52c-.07-.39,2.4-.13,2.15.16l-1.34,1.55c-.37.43-.68-1-.81-1.71Z"/>
  <path class="cls-1" d="M545.4,23.89c.63,0,1.15-.51,1.15-1.15s-.52-1.15-1.15-1.15-1.15.51-1.15,1.15.52,1.15,1.15,1.15Z"/>
  <path class="cls-1" d="M562.02,227.27c1.27.11.81.07-.51-.05-2.72-.27-2.54-.25.51.05Z"/>
  <path class="cls-1" d="M775.48,42.94c-.24-.35,1.48.12,1.93.17.45.05-.77,1.46-.54,1.84.23.38-1.07-1.55-1.39-2.01Z"/>
  <path class="cls-1" d="M143.58,69.86c.63,0,1.15-.51,1.15-1.15s-.51-1.15-1.15-1.15-1.15.51-1.15,1.15.52,1.15,1.15,1.15Z"/>
  <path class="cls-1" d="M591.24,125.71c-.13-.34,2.02.26,1.92.62l-.39,1.41c-.1.36-1.34-1.52-1.53-2.03Z"/>
  <path class="cls-1" d="M797.57,36.85c.64,0,1.15-.51,1.15-1.15s-.51-1.15-1.15-1.15-1.15.51-1.15,1.15.52,1.15,1.15,1.15Z"/>
  <path class="cls-1" d="M805.8,15.74c-.07-.36,2.41-.06,2.15.23l-1.35,1.53c-.38.43-.62-.81-.8-1.76Z"/>
  <path class="cls-1" d="M559.52,2.82c-.06-.35,2.4-.11,2.14.19l-1.33,1.54c-.38.44-.68-.95-.82-1.73h.01Z"/>
  <path class="cls-1" d="M808.17,28.6c.64,0,1.15-.51,1.15-1.15s-.52-1.15-1.15-1.15-1.15.51-1.15,1.15.51,1.15,1.15,1.15Z"/>
  <path class="cls-1" d="M511.21,212.66c-.06-.37,2.4-.14,2.15.15l-1.33,1.56c-.37.43-.7-1.03-.82-1.71Z"/>
  <path class="cls-1" d="M544.13,211.8c-.13-.36,1.99.22,1.9.58l-.38,1.4c-.1.36-1.39-1.63-1.52-1.98Z"/>
  <path class="cls-1" d="M503.64,210.76c.43,0,.78-.35.78-.78s-.35-.78-.78-.78-.78.35-.78.78.35.78.78.78Z"/>
  <path class="cls-1" d="M576.46,39.83c.41,0,.75-.34.75-.75s-.34-.75-.75-.75-.75.34-.75.75.34.75.75.75Z"/>
  <path class="cls-1" d="M516.36,215.46c.41,0,.75-.34.75-.75s-.34-.75-.75-.75-.75.34-.75.75.34.75.75.75Z"/>
  <path class="cls-1" d="M495.74,216.05c.41,0,.75-.34.75-.75s-.34-.75-.75-.75-.75.34-.75.75.34.75.75.75Z"/>
  <path class="cls-1" d="M795.04,39.23c.41,0,.75-.34.75-.75s-.34-.75-.75-.75-.75.34-.75.75.34.75.75.75Z"/>
  <path class="cls-1" d="M426.81,138.85c.41,0,.75-.34.75-.75s-.34-.75-.75-.75-.75.34-.75.75.34.75.75.75Z"/>
  <path class="cls-1" d="M786.8,42.77c.41,0,.75-.34.75-.75s-.34-.75-.75-.75-.75.34-.75.75.34.75.75.75Z"/>
  <path class="cls-1" d="M112.78,39.23c.41,0,.75-.34.75-.75s-.34-.75-.75-.75-.75.34-.75.75.34.75.75.75Z"/>
  <path class="cls-1" d="M387.33,218.4c.41,0,.75-.34.75-.75s-.34-.75-.75-.75-.75.34-.75.75.34.75.75.75Z"/>
  <path class="cls-1" d="M121.61,44.54c.41,0,.75-.34.75-.75s-.34-.75-.75-.75-.75.34-.75.75.34.75.75.75Z"/>
  <path class="cls-1" d="M815.08,25.09c.41,0,.75-.34.75-.75s-.34-.75-.75-.75-.75.34-.75.75.34.75.75.75Z"/>
  <path class="cls-1" d="M598.26,120.57c.41,0,.75-.34.75-.75s-.34-.75-.75-.75-.75.34-.75.75.34.75.75.75Z"/>
  <path class="cls-1" d="M545.82,222.54c.41,0,.75-.34.75-.75s-.34-.75-.75-.75-.75.34-.75.75.34.75.75.75Z"/>
  <path class="cls-1" d="M492.21,12.12c.41,0,.75-.34.75-.75s-.34-.75-.75-.75-.75.34-.75.75.34.75.75.75Z"/>
  <path class="cls-1" d="M246.52,174.21c.41,0,.75-.34.75-.75s-.34-.75-.75-.75-.75.34-.75.75.34.75.75.75Z"/>
  <path class="cls-1" d="M554.07,229.6c.41,0,.75-.34.75-.75s-.34-.75-.75-.75-.75.34-.75.75.34.75.75.75Z"/>
  <path class="cls-1" d="M499.28,230.2c.41,0,.75-.34.75-.75s-.34-.75-.75-.75-.75.34-.75.75.34.75.75.75Z"/>
  <path class="cls-1" d="M801.53,29.21c.41,0,.75-.34.75-.75s-.34-.75-.75-.75-.75.34-.75.75.34.75.75.75Z"/>
  <path class="cls-1" d="M545.82,231.96c.41,0,.75-.34.75-.75s-.34-.75-.75-.75-.75.34-.75.75.34.75.75.75Z"/>
  <path class="cls-1" d="M489.26,13.9c.41,0,.75-.34.75-.75s-.34-.75-.75-.75-.75.34-.75.75.34.75.75.75Z"/>
  <path class="cls-1" d="M547.59,13.3c.41,0,.75-.34.75-.75s-.34-.75-.75-.75-.75.34-.75.75.34.75.75.75Z"/>
  <path class="cls-1" d="M812.72,32.17c.41,0,.75-.34.75-.75s-.34-.75-.75-.75-.75.34-.75.75.34.75.75.75Z"/>
  <path class="cls-1" d="M427.4,197.2c.41,0,.75-.34.75-.75s-.34-.75-.75-.75-.75.34-.75.75.34.75.75.75Z"/>
  <path class="cls-1" d="M423.86,197.2c.41,0,.75-.34.75-.75s-.34-.75-.75-.75-.75.34-.75.75.34.75.75.75Z"/>
  <path class="cls-1" d="M116.9,64.58c.41,0,.75-.34.75-.75s-.34-.75-.75-.75-.75.34-.75.75.34.75.75.75Z"/>
  <path class="cls-1" d="M544.05,194.84c.41,0,.75-.34.75-.75s-.34-.75-.75-.75-.75.34-.75.75.34.75.75.75Z"/>
  <path class="cls-1" d="M134.39,72.96c.3,3.06.32,3.23.05.51-.11-1.32-.15-1.79-.05-.51Z"/>
  <path class="cls-1" d="M195.57,121.39l-10.26,8.56c-.6.5-3.22.79-3.02.15l.88-2.76c16.27-12.59,30.93-25.06,49.7-36.66l-20.06,34.49c-.79-10.69,8.67-15.49,11.75-25.82-10.03,6.53-19.2,13.86-28.99,22.04Z"/>
  <path class="cls-1" d="M183.45,155.34c-3.72,1.12-6.38,5.19-10.19,1.29l25.04-8.61,9.82-13.16c-1.92,5.82-4.21,10.46-7.08,15.18l-17.58,5.29h-.01Z"/>
  <path class="cls-1" d="M170.26,141.85c1.54,3.36,2.51,5.27.77,7.97-1.57-2.2-2.87-5.46-3.61-8.84,2.11-3.01,5.24-5.91,9.35-7.59-1.36,3.69-4.13,5.67-6.51,8.45h0Z"/>
  <path class="cls-1" d="M113.64,178.93c1.94-3.13,4.9-3.55,8.23-4.83l16.08-6.22.69-4.45,1.78,5.74c-8.78,3.93-16.41,7.23-26.77,9.76h-.01Z"/>
</svg>