<?xml version="1.0" encoding="UTF-8"?>
<svg xmlns="http://www.w3.org/2000/svg" viewBox="0 0 816 285">
  <defs>
    <style>
      .cls-1 {
        fill: #fff;
      }
    </style>
  </defs>
  <g id="Layer_5" data-name="Layer 5">
    <rect x=".08" y="-.04" width="816.03" height="285.07"/>
  </g>
  <g id="Layer_4" data-name="Layer 4">
    <g>
      <path class="cls-1" d="M12.15,18.62h310.21c-1.34,2.25-2.21,4.78-2.87,7.6l-5.67-1.06,7.29,6.65-7.4-1,9.52,6.91,3.68-7.08c1.23,3.55,1.76,6.34,3.58,6.61,2.54.38,5.22-1.57,7.92-4.85,1.69.41,7.27,3.82,10.08,5.65,1.54.09,5.69-.52,7.04.37,3.17,2.1.8,2.64,5.44,8.37.64.79,2.33-1.39,3.36-2.52l2.83-3.11c.73-.8,2,2.44,1.95,3.53l-.2,4.38,8.57,3.02-1.09,6.65c-.74,4.52,13.05,2.49,9.94,5.31-6.75,6.12-6.11.42-16.56,8.99l-1.04-1.33c-.45-.57-1.91-2.37-1.8-1.74s-1.86,3.79-2.5,3.81l-24.48,1.07c-.39.02-1.77,2.55-2.14,2.72-.54.25,1.71,1.25,2.48,1.27l16.97.33,9.77,6.71,5-.54c1.23-.13,4.17,3.2,3.13,3.86l-5.19,3.33c-8.4-3.49-18.2-7.49-27.21-6.61-12.61,1.24-23.24,1.66-34.03,9.04-3.13,2.14-8.42,3.43-12.68,3.53-1.03-1.15,11.09-10.42,4.9-11.39-3.14-.49-9.76-1.16-13.03-1.42l-.41,4.7c-.07.82-3.33.23-4.03.68l-11.58,7.42c-.39.25-2.74.4-2.73.44.01.05.54,2.19.82,3.33l-11.46,10.97c6.14,6.41,27.36-3.94,31.2-10.37,1.74,9.94-10.69,9.52-17.49,17.96l30.95,4.07c1.14-4.61,2.3-6.9,4.51-10.1l.48-2.11c2.76-12.1,6.68,14.16,9.82,16.17,15.31,3.03,30.7,2.34,44.77-.86.08-5.46,1.8-11.14,3.53-16.58l-1.83-7.98,12.03,10.19c.9.76-1.44,5.43-.47,6.09l3.85,2.61-1.72,6.9,10.09-5.39c5.92,3.58,19.23,5.83,25.86,4.48l-5.4-13.11c4.84-3.11,11.12-6.33,16.96-8.72,3.98-7.65,1.44-4.29,5.56-15.66,1.27-3.5-1.59,0-3.68-8.6-.22-.92,2.69-.28,3.95-.23l4.97-6.93-15.68-1.03,7.77-5.77c2.59,1.25,5.39,2.78,6.76,1.63l6.49-5.46,3.79,1.41c1.12.42,2.83-2.92,3.47-4.03l2.31-3.96c.54-.92,2.55-.17,4.71.21l-.15-4.66c-.04-1.18,7.48-2.94,10.69-10.96l-9.74,1.29c-1.35.18-2.72-4.74-1.31-4.96l6.76-1.05-10.03-8.51c-2.41-2.04-8.53,2.08-11.86,4.83l-5.67-9.94c-3.81-.58-6.31-1.51-9.78-3.21l-3.99,7.93c-1.98.5-6.77,1.57-8.77,1.83-6.19.83-8.36-7.7-7.95-12.08h221.81c.71,2.24.78,5.67-.88,6.35-2.06.85-5.39,2.58-4.76,3.71l2.68,4.85-11.76-4.3c-4.95-1.81-13.64-3.54-18.12-2.69-1.18.22-2.14,6.3-3.17,5.67-.83-.5-2.09-1.96-3.34-3.38l-11.77,8.63c.28-4.6,2.18-5.34,4.34-7.05-1.35-1.14-5.15-3.49-4.33-4.48l2.71-3.3-11.04,2.29.32,6.13c.35.07-3.41-.65-5.2-.98l-7.07,9.38c-1.81-2.99-4.27-6.35-5.1-5.9-1.9,2.39-3.64,5.16-4.32,4.29l-3.06-3.91c-4.84,2.38-3.16,10.13.32,14.33-4.48-.91-8.23-1.32-11.26-.7,2.22,1.87,5.39,3.57,4.73,4.74s-2.8,4.94-2.35,4.15l-2.97-5.5c-.34-.63-1.97.91-2.04,1.62l-.32,3.51c-.54,5.95-1.95,11.51-4.69,17.27l-6.46-2.95c1.55,15.96-8.51,10.44-3.08,20.97.49.18-1.95.78-2.38.19-.3-.41-.87-.98-2.31-2.48-.45-.89-.78,4.4.25,4.56l4.12.63-3.29,6.05c-.56,1.03,1.58,2.78,1.78,3.95-3.91,4.66-1.09,9.98-1.63,14.48-1.31,11-4.45,22.36-7.33,33.86-1.28,2.15,14.71,24.07,19.07,23.42.09,2.2.18,5.57.45,7.29s5.38,3.74,6.48,3.39l-4.29-7.27,7.27,3.84c1.31.69,5.22-3.07,3.81-3.61l-5.72-2.17c-1.04-.39,1.55-3.89,1.32-4.98l-2.68-12.63,4.75,3.73c.59.46-.12,2.74-.23,3.94,3.03,2.14,7.87,1.62,11.86-.83l-8.19-3.52.24-8.72c2.34,1.79,4.41,4.14,5.52,3.86l5.46-1.39-.13,10.58c1.43-4.24,3.36-9.45,5.93-8.78,20.56,5.31,10.09-.16,36.48,10.71l-2.05,6.08c-.4,1.17,2.59,4.67,3.81,5.18l15.23,6.4c1.41-.42,3.5-1.55,3.77-.73l1.49,4.41c1.07-.63,3.28-3.31,3.82-2.48l2.4,3.65,10.27,5.32c-.26,1.11-1.52,5.19-.91,4.57.46-.46,3.64-.86,4.18-.49l14.42,10.03c.67.47,4.39-.88,4.35-.06l-.19,4.17,3.4-2.74c1.86-1.5,6.64,3.9,8.49,3.05l3.67-1.69c1.82,1.02,5.11,3.9,6.29,2.95l3.88-3.12c1.42,6.31,5.7,11.51,10.48,15.21l-1,4.28,3.75,1.49c.54.21-5.29,8.66-6.35,11.7l-3.8,10.81,3.27,8.77-11.94-3.75,1.63,9.55-4.73-8.5c-7.34,9.74-8.14,2.56-11.24,9-.46.96,1.77,3.59,3.59,3.59h142.22v1.61H.89V18.62h1.61l.02,257.41c5.32.25,11.3.52,12.93-1.58,4.84-6.23-.31-15.32,7.53-27.16,3.5-5.29,1.94-10.15,1.57-15.44-.16-3.33,1.3-10.14,2.31-13.25s5.05-6.77.92-9.47l-2.68,4.97c-.4.74-2.45,1.9-3.42,2.45-.75.42-.53-3.29-.76-3.54-2.26-.68-6.23-2.53-5.68-4.04l2.05-5.55-2-3.05c-.39-.59,2.71-.78,3.41-.75l3.74.19c-.26-3.23-2.93-10.12-4.92-12.99-.59-.86,1.88-3.46,2.57-2.7l3.45,3.82,6.88-5.69c-3.4-14.68,5.34-11.18,9.22-28.91l.88-4.03c.18-.83-2.4-.85-2.81-.12-.27.49-1.05,2.02-1.4,2.46l-3.5,4.42c-.55.69,1.01,1.95,1.72,2.9-2.17.46-6.48.52-6.56,1.88l-.38,6.25c-.09,1.45-4.88.62-5.36-.66s.08-2.99.71-5.58l-3.21-7.13,4.42-1.02c.48-.11.18-.77-.37-.95l-2.98-.98,2.82-8.28,6.27,8.32,8.7-2.85-9.92-11.34,1.76-4.7c.43-1.16-3.11-4.76-4.03-3.79-1.5,1.59-3.49,4.06-6.22,7.43-1.91-.84-6.35-5.99-5.89-7.57,4.71-.18,7.51-.21,8.94-1.77,4.66-5.1-2.03-8.57-2.35-15.73-.04-.97,2.44-3.35,1.95-4.18l-2.09-3.59,7.86-1.71,7.21-9.49c1.06-1.49,1.26-2.26,1.76-1.88l3.04,2.29c2.58-4.55,5.3-10.33,7.26-15.64-16.53,10.26-10.83-1.76-17.59,9-3.55,3.25-13.57-5.22-11.64-10.28,2.55-6.68,11.84-10.08,17.07-15.24,11.24-11.09,5.66-10.68,16.29-20.33.74-.68,1.8-3.79,2.76-3.89l3.43-.34-3.85-10.75c-.28-.02-2.99,1.05-2.89,2.02l.54,5.26-8.7,4.16,1.62-3.72c.16-.37-.66-.4-1.33-.45l-7.13,8.96c-.49.61-4.89.34-4.49-.35s1.58-2.86,2.09-3.48l3.93-4.71c.93-1.11-1.36-4.86-2.18-5.21l-17.08,13.97,6.64-11.75-15.29,9.85c-1.81-1.89-4.96-6.38-5.39-7.92l7.47-12.48ZM108.24,131.91l5.92,1.93c.55.18,1.17-3.03.71-3.39-1.8-1.41-7.94-1.66-8.89.41-1.15,2.51-.83,6.68.07,11.8l4.29-5.03c.8-.94-1.47-3.78-2.1-5.73ZM95.11,145.66c.08,3.31-.11,4.87.55,5.02l3.79.88c-1.62-5.06-3.13-8.88-6.07-15.01l-3.18,10.21,4.92-1.09ZM26.13,275.94l48.81.27,4.33-17.55,6.35,8.53c-1.82,3.13-1.95,6.13-.73,8.07.89,1.41,5.84-.12,6.79-1.6l15.55-24.14c-.29-1.66-1.56-4.3-.58-5.17l4.52-4c-2.47-1.98-5.28-4.71-8.3-8.28-3.05-3.59-12.74-4.17-16.42-.37-1.75,1.81-1.98,7.08-2.35,10.59-4.96-2.99-6.2-7.1-5.7-12.95.76-8.96,6.1-12.4,12.99-18.87,4.03,1.31,7.53,1.52,9.18-.46,1.13-1.34.04-5.52.45-7.39.84-3.86,2.5-7.15-1.38-11.21l5.3-8.85-7.15-3.93,5.06-3.01c.65-.39-.81-2.03-1.56-2.24l-4.69-1.3-1.47,11.68c-3.98-5.69-1.2-13.25,1.05-17.27l3.9-.7c.79-.14.48-3.01-.31-3.18l-2.92-.61-2.92-11.61-6.19,15.22c-2.64-.72-4.68-1.54-4.53-.81l.7,3.23c1.98,9.15-2.46,18.31-11.96,19.21,6.26,12.9-2.76,14.69,2.86,22.6l-4.16,14.54c-.35,1.22-.86,5.62.24,6.27l4.72,2.79-7.13,2.38c-.51,7.14-1.49,13.05-5.85,18.61-4.99,1.48.65-30.01,2.28-30.05l-5.4-4.39,6.67-.28-5.48-11.43,3.94.09c.85.02.72-2.74.74-4.58,0-1.17-.95-4.19-1.88-3.9l-3.08.94c-.67.21-.63,1.72-.95,2.3-3.45,2.16-4.81,4.17-5.96,7.49l-4.47,12.85-6.08,7.56c4.71.65,5.25.19,5.32,1.33.1,1.78-.01,5.28-1.14,5.27-.96,0-3.88-.04-3.87-.04l-3.72,12.17c-3.05,9.97-3.81,19.45-13.37,26.21ZM117.62,235.2l-2.43-13.06,5.11.8c.64.1.4-2.08.18-2.69l-1.14-3.09,4.13-.5c.9-.11-.74-3.96-.37-4.78,1.43-3.26,3.71-9.62,4.69-13.69,2.57-2.11,2.15-3.02-2.13-3.07l1.8-5.9c-3.19-1.83-6.25-4.6-5.6-6.02l4.65,2.23c.71.34,2.45.59,2.43-.19l-.13-4.52c-.03-1.01-2.04-3.39-1.66-4.33l2.11-5.15-6.53,2.25c.2,2.87.55,6.39-.48,7.92-.86,1.27-4.12,2.49-5.77,3.48l-3.81,2.29c-.64.39.54,3.2.68,3.05l3.94-.32c.73-.06.2,2.54-.43,2.88-1.04.57-3.75,1.66-3.26,2.24l3.14,3.68c-5.28.17-10.66.39-12.07,4.62l3.82,6.3c-3.48,2.76-1.26,16.48,2.7,18.72l-4.53.5,10.97,6.35ZM595.33,189.59c-1.83-10.22-7.41-.04-15.31-13.53-1.22-2.09-7.56-1.68-9.86.37-1.46,1.3,2.94,5.4,4.62,5.07l3.63,4.41,16.93,3.67ZM407.93,259.93l.24,4.85c.03.59,3.21-.09,3.5-.59l5.07-8.66,39.02-5.72c1.29-.19,5,2.39,4.15,2.76-.62.27-3.29,1.95-3.45,2.62-1.06,4.68,3.75,14.17,11.01,13.87-.07,2.48-.15,5.51-.15,5.46l8.97-.6c2.28-.15,6.8,1.43,9.4,1.56,20.23.99,40.84.67,60.86.56l1.09-15.91c.39-5.75,1.52-13.62-.35-18.66l-5.23-14.02c-.92-2.46-1.55-3.91-3.74-6.58l1.76-12.69c-1.05.26-2.73.92-3.05,1.52s-1.37,2.54-1.29,2.41c.28-4.87-.95-10.13-3.08-13.04-.64-.87.35-4.24-.46-4.78l-2.91-1.99c-3.26,4.39-8.2,6.23-14.5,2.12l-3.44,12.45c-1.76-.96-4.23-2.44-5.37-1.42.65-.58-18.23,20.6-21.72,12.88l-1.78-3.95-3.73,7.1-3-3.84c-.33-.42-1.47.39-1.55.91l-.52,3.4c-.13.83-1.42,3.54-2.09,3.03l-4.19-3.17-.64,11.27c-2.68.64-5.41-5.09-7.42-6.3l-8.57-5.14c-2.75-1.65-8.68-3.02-12.64-4.17-30.38,13.36-21.55,18.78-29.17,26.09l-11.6,11.12,5.74,9.52,4.85-4.24Z"/>
      <path d="M640.6,18.62c-2.25,4.49-7.14,7.35-12.86,10.57l7.68,4.95c.04-2.21-.57-6.35.67-7.31,2.36-1.81,7.88-5.51,10.2-7.11l3,9.56-3.21-.63c-.63-.12.51,2.51,1.09,3.02l9.94,8.8,6.16,8.49c1.18-6.83-2.4-12.81-6.04-20.07-.14,0,2.81.09,4.15.13,1.19.04,2.11,1.75,3.42,4.49-.01.03,1.11-2.52,2.05-4.65,2.24-5.08-10.42-2.74-8.56-10.25h17.68c-.51.56-2.58,3.07-1.74,3.73l4.05,3.23c-1.91,6.28.02,15.22,7,16.92l-.42,2.73c-.07.48.83.81,1.13.43l1.96-2.54,2.62-3.44c.67-.88-3.41-1.48-6.07-1.97l6.41-11.97c.67,4.08.14,7.58,1.29,9.26,1.39,2.03,6.11,5.24,7.47,5.65-2.91-5.49-4.55-8.8-3.75-13.25l9.9,4.24c-.79-6.11-.97-8.4-.92-13.02h8.04c-.11,1.95,2.01,4.56,3.78,5.21l3.72,1.37c.9.33.37,3.33-.57,3.15l-3.3-.64c-2.86-.55,4.77,6.57,4.45,11.08l4.93,1.58c2.11.68-.21,2.68,1.36,9.43.18.75,2.52-.29,2.55-.69l1.37-9.18c2.27,5.92,2,11.03,1.78,17.04l5.02,5.06-3.33,2.48c-.45.34,1.69,1.31,2.24,1.68l2.64,1.82c3.81,2.63-.79-10.37,4.42-15.4l-.88-3.96c-.22-1.01,3.39-2.38,3.6-1.22l2.65,14.22c.58,3.08.27,5.34,1.82,7.35,1.12,1.45,3.61.75,5.28-.21.93,2.64,2,5.38,3.34,6.35,4.64,3.38,13.12-1.49,13.54-2.03,1.51-1.95,2.02-13.57.87-16.92,5.86-1.32,5.19-7.19,4.25-11.82,1.4-.93,3.32-4.35,2.86-5.99l-2.31-8.31,6.66,8.4-.43-11.74c-.08-2.22-.97-5.78-1.61-8.13h19.29v257.52h-142.22c-1.83,0-4.06-2.64-3.59-3.6,3.11-6.44,3.9.74,11.24-9l4.73,8.5-1.63-9.55,11.94,3.75-3.27-8.77,3.8-10.81c1.07-3.04,6.89-11.49,6.35-11.7l-3.75-1.49,1-4.28c-4.78-3.7-9.06-8.9-10.48-15.21l-3.88,3.12c-1.19.96-4.48-1.93-6.29-2.95l-3.67,1.69c-1.85.85-6.64-4.55-8.49-3.05l-3.4,2.74.19-4.17c.04-.82-3.68.53-4.35.06l-14.42-10.03c-.54-.37-3.72.03-4.18.49-.61.62.65-3.46.91-4.57l-10.27-5.32-2.4-3.65c-.54-.82-2.76,1.86-3.82,2.48l-1.49-4.41c-.28-.82-2.37.31-3.77.73l-15.23-6.4c-1.23-.52-4.21-4.01-3.81-5.18l2.05-6.08c-26.39-10.87-15.91-5.39-36.48-10.71-2.58-.67-4.5,4.54-5.93,8.78l.13-10.58-5.46,1.39c-1.11.28-3.17-2.06-5.52-3.86l-.24,8.72,8.19,3.52c-3.99,2.45-8.84,2.97-11.86.83.11-1.2.83-3.48.23-3.94l-4.75-3.73,2.68,12.63c.23,1.09-2.36,4.59-1.32,4.98l5.72,2.17c1.41.54-2.5,4.3-3.81,3.61l-7.27-3.84,4.29,7.27c-1.11.35-6.22-1.67-6.48-3.39s-.36-5.09-.45-7.29c-4.36.66-20.35-21.27-19.07-23.42,2.89-11.5,6.02-22.86,7.33-33.86.54-4.5-2.29-9.82,1.63-14.48-.2-1.17-2.34-2.92-1.78-3.95l3.29-6.05-4.12-.63c-1.03-.16-.7-5.45-.25-4.56,1.44,1.51,2.01,2.07,2.31,2.48.43.59,2.87,0,2.38-.19-5.43-10.53,4.63-5.01,3.08-20.97l6.46,2.95c2.75-5.76,4.16-11.32,4.69-17.27l.32-3.51c.06-.71,1.7-2.25,2.04-1.62l2.97,5.5c-.45.79,1.68-2.96,2.35-4.15s-2.51-2.87-4.73-4.74c3.02-.61,6.78-.21,11.26.7-3.48-4.2-5.17-11.94-.32-14.33l3.06,3.91c.69.88,2.42-1.9,4.32-4.29.83-.44,3.29,2.91,5.1,5.9l7.07-9.38c1.79.34,5.55,1.05,5.2.98l-.32-6.13,11.04-2.29-2.71,3.3c-.82.99,2.98,3.34,4.33,4.48-2.16,1.72-4.06,2.45-4.34,7.05l11.77-8.63c1.25,1.42,2.51,2.88,3.34,3.38,1.03.62,1.99-5.45,3.17-5.67,4.49-.85,13.17.88,18.12,2.69l11.76,4.3-2.68-4.85c-.62-1.13,2.7-2.86,4.76-3.71,1.66-.68,1.59-4.11.88-6.35h14.47ZM615.69,119.9l-1.3,5.47,16.39,1.81c-4.98-8.76-14.71-13.25-25.22-14l-12.65-.91c-.88-.06-2.67-.91-2.82-.29-.1.42-.16,1.95-.17,2.24l-5.03,4.62c-.85-1.1-3.39-4.68-4.46-3.84l-4.2,3.29c-.89.69-2.34,4.05-1.63,4.56,5.53,1.67,14.14-1.66,17.87-6.95l4.47,5.62c.78.98,4.3.17,5.43.76,6.26,3.27,14.52-7.39,13.33-2.38Z"/>
      <path d="M775.62,18.62l.7,5.8,5.89,1.44-6.39,5.44,2.64,13.1c-2.62,1.73-5.57,4.94-8.97,8.27,5.09-7.99,5.33-14.36.79-21.66.79-3.79,1.27-8.74.51-12.38h4.82Z"/>
      <path d="M404.33,18.62c-.42,4.38,1.76,12.91,7.95,12.08,2-.27,6.79-1.33,8.77-1.83l3.99-7.93c3.47,1.69,5.97,2.63,9.78,3.21l5.67,9.94c3.33-2.75,9.46-6.88,11.86-4.83l10.03,8.51-6.76,1.05c-1.4.22-.03,5.14,1.31,4.96l9.74-1.29c-3.2,8.02-10.72,9.78-10.69,10.96l.15,4.66c-2.16-.39-4.17-1.13-4.71-.21l-2.31,3.96c-.65,1.11-2.35,4.44-3.47,4.03l-3.79-1.41-6.49,5.46c-1.37,1.15-4.17-.39-6.76-1.63l-7.77,5.77,15.68,1.03-4.97,6.93c-1.26-.05-4.18-.69-3.95.23,2.09,8.6,4.95,5.09,3.68,8.6-4.13,11.37-1.58,8.01-5.56,15.66-5.85,2.38-12.12,5.61-16.96,8.72l5.4,13.11c-6.63,1.36-19.94-.9-25.86-4.48l-10.09,5.39,1.72-6.9-3.85-2.61c-.97-.66,1.36-5.34.47-6.09l-12.03-10.19,1.83,7.98c-1.74,5.44-3.45,11.11-3.53,16.58-14.07,3.21-29.46,3.89-44.77.86-3.13-2.01-7.05-28.27-9.82-16.17l-.48,2.11c-2.21,3.19-3.37,5.49-4.51,10.1l-30.95-4.07c6.8-8.44,19.24-8.03,17.49-17.96-3.84,6.43-25.06,16.78-31.2,10.37l11.46-10.97c-.28-1.15-.81-3.28-.82-3.33,0-.03,2.34-.19,2.73-.44l11.58-7.42c.7-.45,3.96.14,4.03-.68l.41-4.7c3.27.26,9.88.93,13.03,1.42,6.19.97-5.93,10.24-4.9,11.39,4.26-.1,9.54-1.38,12.68-3.53,10.8-7.38,21.43-7.81,34.03-9.04,9-.88,18.8,3.12,27.21,6.61l5.19-3.33c1.04-.67-1.9-4-3.13-3.86l-5,.54-9.77-6.71-16.97-.33c-.77-.02-3.02-1.02-2.48-1.27.37-.17,1.74-2.7,2.14-2.72l24.48-1.07c.64-.03,2.61-3.19,2.5-3.81s1.35,1.17,1.8,1.74l1.04,1.33c10.44-8.57,9.8-2.87,16.56-8.99,3.11-2.82-10.67-.79-9.94-5.31l1.09-6.65-8.57-3.02.2-4.38c.05-1.09-1.22-4.34-1.95-3.53l-2.83,3.11c-1.03,1.13-2.73,3.3-3.36,2.52-4.63-5.73-2.27-6.27-5.44-8.37-1.35-.89-5.5-.28-7.04-.37-2.8-1.83-8.39-5.24-10.08-5.65-2.71,3.27-5.39,5.23-7.92,4.85-1.82-.27-2.35-3.06-3.58-6.61l-3.68,7.08-9.52-6.91,7.4,1-7.29-6.65,5.67,1.06c.66-2.82,1.53-5.35,2.87-7.6h81.97Z"/>
      <path d="M12.15,18.62l-7.47,12.48c.43,1.54,3.58,6.03,5.39,7.92l15.29-9.85-6.64,11.75,17.08-13.97c.82.35,3.1,4.09,2.18,5.21l-3.93,4.71c-.51.61-1.7,2.79-2.09,3.48s4.01.96,4.49.35l7.13-8.96c.68.05,1.5.08,1.33.45l-1.62,3.72,8.7-4.16-.54-5.26c-.1-.96,2.61-2.04,2.89-2.02l3.85,10.75-3.43.34c-.96.1-2.01,3.21-2.76,3.89-10.63,9.65-5.05,9.24-16.29,20.33-5.23,5.16-14.52,8.56-17.07,15.24-1.93,5.06,8.1,13.52,11.64,10.28,6.76-10.76,1.06,1.26,17.59-9-1.95,5.31-4.68,11.09-7.26,15.64l-3.04-2.29c-.51-.38-.71.39-1.76,1.88l-7.21,9.49-7.86,1.71,2.09,3.59c.49.83-2,3.21-1.95,4.18.32,7.15,7.01,10.63,2.35,15.73-1.43,1.56-4.22,1.59-8.94,1.77-.46,1.57,3.99,6.72,5.89,7.57,2.73-3.37,4.72-5.84,6.22-7.43.92-.97,4.46,2.63,4.03,3.79l-1.76,4.7,9.92,11.34-8.7,2.85-6.27-8.32-2.82,8.28,2.98.98c.55.18.84.84.37.95l-4.42,1.02,3.21,7.13c-.63,2.59-1.18,4.3-.71,5.58s5.27,2.11,5.36.66l.38-6.25c.08-1.35,4.39-1.41,6.56-1.88-.71-.95-2.26-2.21-1.72-2.9l3.5-4.42c.35-.44,1.12-1.97,1.4-2.46.41-.74,2.99-.71,2.81.12l-.88,4.03c-3.88,17.74-12.62,14.23-9.22,28.91l-6.88,5.69-3.45-3.82c-.69-.76-3.17,1.85-2.57,2.7,1.99,2.87,4.66,9.76,4.92,12.99l-3.74-.19c-.71-.04-3.8.16-3.41.75l2,3.05-2.05,5.55c-.56,1.51,3.42,3.36,5.68,4.04.24.25.02,3.96.76,3.54.98-.55,3.02-1.7,3.42-2.45l2.68-4.97c4.13,2.7.09,6.36-.92,9.47s-2.48,9.93-2.31,13.25c.38,5.29,1.94,10.15-1.57,15.44-7.84,11.84-2.7,20.93-7.53,27.16-1.63,2.1-7.61,1.82-12.93,1.58l-.02-257.41h9.64Z"/>
      <path class="cls-1" d="M783.66,18.62c.64,2.36,1.53,5.91,1.61,8.13l.43,11.74-6.66-8.4,2.31,8.31c.46,1.65-1.46,5.06-2.86,5.99l-2.64-13.1,6.39-5.44-5.89-1.44-.7-5.8h8.04Z"/>
      <path class="cls-1" d="M770.8,18.62c.77,3.65.28,8.59-.51,12.38,4.54,7.31,4.3,13.68-.79,21.66,3.4-3.34,6.35-6.54,8.97-8.27.93,4.63,1.61,10.5-4.25,11.82,1.16,3.35.64,14.97-.87,16.92-.42.54-8.91,5.41-13.54,2.03-1.33-.97-2.41-3.71-3.34-6.35-1.67.96-4.16,1.66-5.28.21-1.55-2.02-1.25-4.27-1.82-7.35l-2.65-14.22c-.22-1.16-3.83.21-3.6,1.22l.88,3.96c-5.21,5.03-.61,18.03-4.42,15.4l-2.64-1.82c-.54-.37-2.69-1.34-2.24-1.68l3.33-2.48-5.02-5.06c.22-6.01.49-11.12-1.78-17.04l-1.37,9.18c-.03.4-2.37,1.44-2.55.69-1.57-6.75.75-8.76-1.36-9.43l-4.93-1.58c.32-4.51-7.31-11.63-4.45-11.08l3.3.64c.94.18,1.47-2.82.57-3.15l-3.72-1.37c-1.77-.65-3.89-3.26-3.78-5.21h57.86Z"/>
      <path class="cls-1" d="M704.9,18.62c-.05,4.62.13,6.9.92,13.02l-9.9-4.24c-.81,4.44.84,7.76,3.75,13.25-1.36-.41-6.08-3.61-7.47-5.65-1.15-1.68-.62-5.18-1.29-9.26l-6.41,11.97c2.66.49,6.74,1.09,6.07,1.97l-2.62,3.44-1.96,2.54c-.3.38-1.21.05-1.13-.43l.42-2.73c-6.99-1.7-8.91-10.64-7-16.92l-4.05-3.23c-.83-.66,1.24-3.17,1.74-3.73h28.93Z"/>
      <path class="cls-1" d="M658.29,18.62c-1.87,7.51,10.8,5.17,8.56,10.25-.94,2.12-2.07,4.68-2.05,4.65-1.32-2.74-2.23-4.45-3.42-4.49-1.34-.04-4.29-.14-4.15-.13,3.65,7.25,7.22,13.24,6.04,20.07l-6.16-8.49-9.94-8.8c-.58-.51-1.71-3.14-1.09-3.02l3.21.63-3-9.56c-2.32,1.6-7.84,5.3-10.2,7.11-1.24.96-.63,5.1-.67,7.31l-7.68-4.95c5.72-3.22,10.62-6.08,12.86-10.57h17.68Z"/>
      <path d="M407.93,259.93l-4.85,4.24-5.74-9.52,11.6-11.12c7.63-7.31-1.21-12.73,29.17-26.09,3.96,1.15,9.89,2.52,12.64,4.17l8.57,5.14c2.01,1.2,4.74,6.94,7.42,6.3l.64-11.27,4.19,3.17c.68.51,1.97-2.2,2.09-3.03l.52-3.4c.08-.52,1.22-1.33,1.55-.91l3,3.84,3.73-7.1,1.78,3.95c3.49,7.73,22.37-13.46,21.72-12.88,1.14-1.02,3.61.46,5.37,1.42l3.44-12.45c6.29,4.12,11.24,2.28,14.5-2.12l2.91,1.99c.8.55-.18,3.91.46,4.78,2.13,2.91,3.36,8.18,3.08,13.04-.08.13.96-1.8,1.29-2.41s2.01-1.26,3.05-1.52l-1.76,12.69c2.18,2.67,2.82,4.12,3.74,6.58l5.23,14.02c1.88,5.04.75,12.91.35,18.66l-1.09,15.91c-20.02.11-40.63.44-60.86-.56-2.6-.13-7.13-1.71-9.4-1.56l-8.97.6s.08-2.98.15-5.46c-7.26.3-12.08-9.19-11.01-13.87.15-.67,2.83-2.35,3.45-2.62.85-.37-2.85-2.95-4.15-2.76l-39.02,5.72-5.07,8.66c-.3.51-3.47,1.18-3.5.59l-.24-4.85Z"/>
      <path d="M26.13,275.94c9.56-6.76,10.32-16.24,13.37-26.21l3.72-12.17s2.91.03,3.87.04c1.13,0,1.25-3.5,1.14-5.27-.07-1.14-.61-.68-5.32-1.33l6.08-7.56,4.47-12.85c1.15-3.32,2.52-5.33,5.96-7.49.32-.58.27-2.09.95-2.3l3.08-.94c.93-.28,1.89,2.73,1.88,3.9-.02,1.84.11,4.6-.74,4.58l-3.94-.09,5.48,11.43-6.67.28,5.4,4.39c-1.63.05-7.27,31.53-2.28,30.05,4.36-5.56,5.34-11.47,5.85-18.61l7.13-2.38-4.72-2.79c-1.09-.65-.58-5.06-.24-6.27l4.16-14.54c-5.62-7.91,3.4-9.7-2.86-22.6,9.5-.9,13.94-10.06,11.96-19.21l-.7-3.23c-.16-.72,1.89.09,4.53.81l6.19-15.22,2.92,11.61,2.92.61c.78.16,1.1,3.04.31,3.18l-3.9.7c-2.26,4.01-5.03,11.58-1.05,17.27l1.47-11.68,4.69,1.3c.75.21,2.21,1.85,1.56,2.24l-5.06,3.01,7.15,3.93-5.3,8.85c3.89,4.06,2.22,7.35,1.38,11.21-.41,1.88.68,6.05-.45,7.39-1.65,1.97-5.15,1.76-9.18.46-6.88,6.47-12.22,9.91-12.99,18.87-.5,5.85.74,9.96,5.7,12.95.37-3.52.6-8.78,2.35-10.59,3.68-3.8,13.37-3.22,16.42.37,3.03,3.57,5.84,6.3,8.3,8.28l-4.52,4c-.98.87.29,3.52.58,5.17l-15.55,24.14c-.96,1.48-5.91,3.01-6.79,1.6-1.22-1.95-1.09-4.94.73-8.07l-6.35-8.53-4.33,17.55-48.81-.27Z"/>
      <path d="M117.62,235.2l-10.97-6.35,4.53-.5c-3.96-2.24-6.18-15.96-2.7-18.72l-3.82-6.3c1.41-4.23,6.79-4.45,12.07-4.62l-3.14-3.68c-.5-.58,2.22-1.67,3.26-2.24.63-.35,1.17-2.94.43-2.88l-3.94.32c-.15.15-1.32-2.67-.68-3.05l3.81-2.29c1.65-.99,4.91-2.21,5.77-3.48,1.03-1.52.68-5.05.48-7.92l6.53-2.25-2.11,5.15c-.38.94,1.63,3.32,1.66,4.33l.13,4.52c.02.78-1.72.53-2.43.19l-4.65-2.23c-.66,1.42,2.41,4.19,5.6,6.02l-1.8,5.9c4.28.05,4.7.96,2.13,3.07-.98,4.07-3.26,10.43-4.69,13.69-.36.83,1.27,4.67.37,4.78l-4.13.5,1.14,3.09c.23.61.46,2.79-.18,2.69l-5.11-.8,2.43,13.06Z"/>
      <path d="M595.33,189.59l-16.93-3.67-3.63-4.41c-1.67.33-6.08-3.77-4.62-5.07,2.3-2.05,8.64-2.46,9.86-.37,7.91,13.49,13.48,3.3,15.31,13.53Z"/>
      <path d="M108.24,131.91c.63,1.95,2.9,4.79,2.1,5.73l-4.29,5.03c-.9-5.13-1.22-9.3-.07-11.8.95-2.07,7.09-1.82,8.89-.41.46.36-.16,3.57-.71,3.39l-5.92-1.93Z"/>
      <path d="M95.11,145.66l-4.92,1.09,3.18-10.21c2.94,6.13,4.45,9.95,6.07,15.01l-3.79-.88c-.66-.15-.47-1.71-.55-5.02Z"/>
      <path class="cls-1" d="M615.69,119.9c1.19-5.02-7.07,5.65-13.33,2.38-1.13-.59-4.66.22-5.43-.76l-4.47-5.62c-3.73,5.29-12.34,8.63-17.87,6.95-.71-.51.74-3.87,1.63-4.56l4.2-3.29c1.08-.84,3.61,2.74,4.46,3.84l5.03-4.62c.01-.3.07-1.82.17-2.24.15-.62,1.94.23,2.82.29l12.65.91c10.51.75,20.24,5.25,25.22,14l-16.39-1.81,1.3-5.47Z"/>
    </g>
    <rect x=".34" y="15.47" width="3.1" height="263.21"/>
    <rect x="3.02" y="275.22" width="806.94" height="7.93"/>
  </g>
</svg>