<?xml version="1.0" encoding="UTF-8"?>
<svg id="Layer_1" data-name="Layer 1" xmlns="http://www.w3.org/2000/svg" viewBox="0 0 200 200">
  <defs>
    <style>
      .cls-1 {
        fill: none;
      }
    </style>
  </defs>
  <path class="cls-1" d="M-14.85-14.63v238.62h232.71V-14.63H-14.85ZM199.23,179.58l-45.29,15.37-84.73-65.01-43.45,25.57c-6.73-.07-17.61-5.58-24.96-9.79l-.2-83.64c6.05-5.1,17.07-10.4,24.82-11.63l43.39,26.25L154.07,11.48l45.43,15.98-.27,152.12Z"/>
  <path d="M154.07,11.48l-85.28,65.22-43.39-26.25c-7.75,1.22-18.77,6.53-24.82,11.63l.2,83.64c7.34,4.22,18.22,9.72,24.96,9.79l43.45-25.57,84.73,65.01,45.29-15.37.27-152.12-45.43-15.98ZM31.8,116l-.14-25.57,21.76,12.72-21.63,12.85ZM153.53,138.99l-53.04-35.7,53.04-35.91v71.61Z"/>
  <polygon class="cls-1" points="153.53 67.38 153.53 138.99 100.49 103.28 153.53 67.38"/>
  <polygon class="cls-1" points="53.43 103.15 31.8 116 31.67 90.43 53.43 103.15"/>
</svg>